<svg xmlns="http://www.w3.org/2000/svg" xmlns:xlink="http://www.w3.org/1999/xlink" width="600" zoomAndPan="magnify" viewBox="0 0 450 449.999984" height="600" preserveAspectRatio="xMidYMid meet" version="1.2"><defs><clipPath id="ef789afa0c"><path d="M 207.734375 84.238281 L 248.878906 84.238281 L 248.878906 304.574219 L 207.734375 304.574219 Z M 207.734375 84.238281 "/></clipPath><clipPath id="c9d52d6ec2"><path d="M 248.878906 95.488281 L 248.878906 293.285156 C 248.878906 296.265625 247.691406 299.128906 245.582031 301.238281 C 243.472656 303.347656 240.609375 304.535156 237.628906 304.535156 L 218.984375 304.535156 C 216 304.535156 213.140625 303.347656 211.03125 301.238281 C 208.921875 299.128906 207.734375 296.265625 207.734375 293.285156 L 207.734375 95.488281 C 207.734375 92.503906 208.921875 89.644531 211.03125 87.53125 C 213.140625 85.421875 216 84.238281 218.984375 84.238281 L 237.628906 84.238281 C 240.609375 84.238281 243.472656 85.421875 245.582031 87.53125 C 247.691406 89.644531 248.878906 92.503906 248.878906 95.488281 Z M 248.878906 95.488281 "/></clipPath><clipPath id="50f1936825"><path d="M 168.070312 304.535156 L 288.542969 304.535156 L 288.542969 433 L 168.070312 433 Z M 168.070312 304.535156 "/></clipPath><clipPath id="0799885dcc"><path d="M 178.570312 304.535156 L 278.042969 304.535156 C 280.828125 304.535156 283.496094 305.644531 285.464844 307.613281 C 287.433594 309.582031 288.542969 312.25 288.542969 315.035156 L 288.542969 422.328125 C 288.542969 425.113281 287.433594 427.78125 285.464844 429.75 C 283.496094 431.71875 280.828125 432.828125 278.042969 432.828125 L 178.570312 432.828125 C 175.785156 432.828125 173.117188 431.71875 171.144531 429.75 C 169.175781 427.78125 168.070312 425.113281 168.070312 422.328125 L 168.070312 315.035156 C 168.070312 312.25 169.175781 309.582031 171.144531 307.613281 C 173.117188 305.644531 175.785156 304.535156 178.570312 304.535156 Z M 178.570312 304.535156 "/></clipPath><clipPath id="2ddcf9cc2b"><path d="M 199.5625 304.535156 L 288.542969 304.535156 L 288.542969 433 L 199.5625 433 Z M 199.5625 304.535156 "/></clipPath><clipPath id="55d9bc36e5"><path d="M 210.0625 304.535156 L 278.042969 304.535156 C 280.828125 304.535156 283.496094 305.644531 285.464844 307.613281 C 287.433594 309.582031 288.542969 312.25 288.542969 315.035156 L 288.542969 422.328125 C 288.542969 425.113281 287.433594 427.78125 285.464844 429.75 C 283.496094 431.71875 280.828125 432.828125 278.042969 432.828125 L 210.0625 432.828125 C 207.277344 432.828125 204.605469 431.71875 202.636719 429.75 C 200.667969 427.78125 199.5625 425.113281 199.5625 422.328125 L 199.5625 315.035156 C 199.5625 312.25 200.667969 309.582031 202.636719 307.613281 C 204.605469 305.644531 207.277344 304.535156 210.0625 304.535156 Z M 210.0625 304.535156 "/></clipPath><clipPath id="716641c9b6"><path d="M 158.449219 298.070312 L 298.1875 298.070312 L 298.1875 335.804688 L 158.449219 335.804688 Z M 158.449219 298.070312 "/></clipPath><clipPath id="979ea67075"><path d="M 168.949219 298.070312 L 287.664062 298.070312 C 290.449219 298.070312 293.117188 299.175781 295.085938 301.144531 C 297.058594 303.113281 298.164062 305.785156 298.164062 308.570312 L 298.164062 325.304688 C 298.164062 328.089844 297.058594 330.761719 295.085938 332.730469 C 293.117188 334.699219 290.449219 335.804688 287.664062 335.804688 L 168.949219 335.804688 C 166.164062 335.804688 163.492188 334.699219 161.523438 332.730469 C 159.554688 330.761719 158.449219 328.089844 158.449219 325.304688 L 158.449219 308.570312 C 158.449219 305.785156 159.554688 303.113281 161.523438 301.144531 C 163.492188 299.175781 166.164062 298.070312 168.949219 298.070312 Z M 168.949219 298.070312 "/></clipPath><clipPath id="a8827b5c87"><path d="M 158.449219 430.203125 L 298.175781 430.203125 L 298.175781 450 L 158.449219 450 Z M 158.449219 430.203125 "/></clipPath><clipPath id="5e511a73c4"><path d="M 168.347656 430.203125 L 288.265625 430.203125 C 290.890625 430.203125 293.40625 431.246094 295.265625 433.105469 C 297.121094 434.960938 298.164062 437.476562 298.164062 440.101562 C 298.164062 442.726562 297.121094 445.246094 295.265625 447.101562 C 293.40625 448.957031 290.890625 450 288.265625 450 L 168.347656 450 C 165.722656 450 163.203125 448.957031 161.347656 447.101562 C 159.492188 445.246094 158.449219 442.726562 158.449219 440.101562 C 158.449219 437.476562 159.492188 434.960938 161.347656 433.105469 C 163.203125 431.246094 165.722656 430.203125 168.347656 430.203125 Z M 168.347656 430.203125 "/></clipPath><clipPath id="9c651f7c05"><path d="M 229 127 L 286 127 L 286 171 L 229 171 Z M 229 127 "/></clipPath><clipPath id="ab59c34513"><path d="M 277.847656 123.691406 L 289.835938 144.605469 L 236.980469 174.898438 L 224.992188 153.984375 Z M 277.847656 123.691406 "/></clipPath><clipPath id="5fafd4fef5"><path d="M 280.074219 150.199219 L 246.742188 169.300781 C 241.351562 172.390625 234.476562 170.527344 231.386719 165.136719 L 230.589844 163.746094 C 227.5 158.355469 229.367188 151.480469 234.757812 148.390625 L 268.085938 129.285156 C 273.476562 126.195312 280.351562 128.0625 283.441406 133.453125 L 284.238281 134.84375 C 287.328125 140.234375 285.464844 147.109375 280.074219 150.199219 Z M 280.074219 150.199219 "/></clipPath><clipPath id="e00bbf26da"><path d="M 175 133 L 224 133 L 224 187 L 175 187 Z M 175 133 "/></clipPath><clipPath id="cb5da8d31c"><path d="M 170.792969 144.238281 L 189.296875 128.792969 L 228.335938 175.5625 L 209.828125 191.007812 Z M 170.792969 144.238281 "/></clipPath><clipPath id="9bca627161"><path d="M 196.507812 137.429688 L 221.125 166.921875 C 225.105469 171.695312 224.464844 178.789062 219.695312 182.769531 L 218.464844 183.796875 C 213.691406 187.777344 206.597656 187.140625 202.617188 182.371094 L 178 152.875 C 174.019531 148.105469 174.660156 141.011719 179.429688 137.027344 L 180.660156 136 C 185.429688 132.019531 192.523438 132.660156 196.507812 137.429688 Z M 196.507812 137.429688 "/></clipPath><clipPath id="57f4959530"><path d="M 175.457031 92.019531 L 199.5625 92.019531 L 199.5625 152.5625 L 175.457031 152.5625 Z M 175.457031 92.019531 "/></clipPath><clipPath id="933ad32e67"><path d="M 199.5625 103.269531 L 199.5625 141.300781 C 199.5625 147.515625 194.523438 152.550781 188.3125 152.550781 L 186.707031 152.550781 C 180.492188 152.550781 175.457031 147.515625 175.457031 141.300781 L 175.457031 103.269531 C 175.457031 97.054688 180.492188 92.019531 186.707031 92.019531 L 188.3125 92.019531 C 194.523438 92.019531 199.5625 97.054688 199.5625 103.269531 Z M 199.5625 103.269531 "/></clipPath><clipPath id="4365423114"><path d="M 261.613281 112.054688 L 285.714844 112.054688 L 285.714844 149.339844 L 261.613281 149.339844 Z M 261.613281 112.054688 "/></clipPath><clipPath id="79d21266bb"><path d="M 285.714844 123.304688 L 285.714844 138.039062 C 285.714844 144.253906 280.679688 149.289062 274.464844 149.289062 L 272.863281 149.289062 C 266.648438 149.289062 261.613281 144.253906 261.613281 138.039062 L 261.613281 123.304688 C 261.613281 117.089844 266.648438 112.054688 272.863281 112.054688 L 274.464844 112.054688 C 280.679688 112.054688 285.714844 117.089844 285.714844 123.304688 Z M 285.714844 123.304688 "/></clipPath><clipPath id="ec481b3f47"><path d="M 172 207 L 224 207 L 224 259 L 172 259 Z M 172 207 "/></clipPath><clipPath id="bf9afa910d"><path d="M 168.1875 219.589844 L 185.230469 202.546875 L 228.308594 245.625 L 211.261719 262.667969 Z M 168.1875 219.589844 "/></clipPath><clipPath id="37cc873dff"><path d="M 193.183594 210.5 L 220.351562 237.667969 C 224.742188 242.058594 224.742188 249.183594 220.351562 253.574219 L 219.214844 254.710938 C 214.824219 259.105469 207.699219 259.105469 203.304688 254.710938 L 176.140625 227.546875 C 171.746094 223.152344 171.746094 216.027344 176.140625 211.636719 L 177.273438 210.5 C 181.667969 206.105469 188.792969 206.105469 193.183594 210.5 Z M 193.183594 210.5 "/></clipPath><clipPath id="eafb44cdae"><path d="M 232 185 L 290 185 L 290 229 L 232 229 Z M 232 185 "/></clipPath><clipPath id="48f9cd1b24"><path d="M 281.152344 181.40625 L 293.140625 202.320312 L 240.285156 232.617188 L 228.300781 211.703125 Z M 281.152344 181.40625 "/></clipPath><clipPath id="bb2145036c"><path d="M 283.378906 207.914062 L 250.050781 227.019531 C 244.660156 230.109375 237.785156 228.242188 234.695312 222.851562 L 233.898438 221.460938 C 230.808594 216.070312 232.671875 209.195312 238.0625 206.105469 L 271.394531 187.003906 C 276.785156 183.914062 283.660156 185.777344 286.75 191.167969 L 287.546875 192.558594 C 290.636719 197.949219 288.769531 204.824219 283.378906 207.914062 Z M 283.378906 207.914062 "/></clipPath></defs><g id="cfed939811"><g clip-rule="nonzero" clip-path="url(#ef789afa0c)"><g clip-rule="nonzero" clip-path="url(#c9d52d6ec2)"><path style=" stroke:none;fill-rule:nonzero;fill:#80b918;fill-opacity:1;" d="M 207.734375 84.238281 L 248.878906 84.238281 L 248.878906 304.574219 L 207.734375 304.574219 Z M 207.734375 84.238281 "/></g></g><g clip-rule="nonzero" clip-path="url(#50f1936825)"><g clip-rule="nonzero" clip-path="url(#0799885dcc)"><path style=" stroke:none;fill-rule:nonzero;fill:#92530a;fill-opacity:1;" d="M 168.070312 304.535156 L 288.542969 304.535156 L 288.542969 433.007812 L 168.070312 433.007812 Z M 168.070312 304.535156 "/></g></g><g clip-rule="nonzero" clip-path="url(#2ddcf9cc2b)"><g clip-rule="nonzero" clip-path="url(#55d9bc36e5)"><path style=" stroke:none;fill-rule:nonzero;fill:#a8610d;fill-opacity:1;" d="M 199.5625 304.535156 L 288.542969 304.535156 L 288.542969 432.792969 L 199.5625 432.792969 Z M 199.5625 304.535156 "/></g></g><g clip-rule="nonzero" clip-path="url(#716641c9b6)"><g clip-rule="nonzero" clip-path="url(#979ea67075)"><path style=" stroke:none;fill-rule:nonzero;fill:#c87009;fill-opacity:1;" d="M 158.449219 298.070312 L 298.1875 298.070312 L 298.1875 335.804688 L 158.449219 335.804688 Z M 158.449219 298.070312 "/></g></g><g clip-rule="nonzero" clip-path="url(#a8827b5c87)"><g clip-rule="nonzero" clip-path="url(#5e511a73c4)"><path style=" stroke:none;fill-rule:nonzero;fill:#a6a6a6;fill-opacity:1;" d="M 158.449219 430.203125 L 298.175781 430.203125 L 298.175781 450 L 158.449219 450 Z M 158.449219 430.203125 "/></g></g><g clip-rule="nonzero" clip-path="url(#9c651f7c05)"><g clip-rule="nonzero" clip-path="url(#ab59c34513)"><g clip-rule="nonzero" clip-path="url(#5fafd4fef5)"><path style=" stroke:none;fill-rule:nonzero;fill:#80b918;fill-opacity:1;" d="M 277.847656 123.691406 L 289.835938 144.605469 L 236.980469 174.898438 L 224.992188 153.984375 Z M 277.847656 123.691406 "/></g></g></g><g clip-rule="nonzero" clip-path="url(#e00bbf26da)"><g clip-rule="nonzero" clip-path="url(#cb5da8d31c)"><g clip-rule="nonzero" clip-path="url(#9bca627161)"><path style=" stroke:none;fill-rule:nonzero;fill:#80b918;fill-opacity:1;" d="M 170.792969 144.238281 L 189.296875 128.792969 L 228.335938 175.5625 L 209.828125 191.007812 Z M 170.792969 144.238281 "/></g></g></g><g clip-rule="nonzero" clip-path="url(#57f4959530)"><g clip-rule="nonzero" clip-path="url(#933ad32e67)"><path style=" stroke:none;fill-rule:nonzero;fill:#80b918;fill-opacity:1;" d="M 175.457031 92.019531 L 199.5625 92.019531 L 199.5625 152.5625 L 175.457031 152.5625 Z M 175.457031 92.019531 "/></g></g><g clip-rule="nonzero" clip-path="url(#4365423114)"><g clip-rule="nonzero" clip-path="url(#79d21266bb)"><path style=" stroke:none;fill-rule:nonzero;fill:#80b918;fill-opacity:1;" d="M 261.613281 112.054688 L 285.714844 112.054688 L 285.714844 149.246094 L 261.613281 149.246094 Z M 261.613281 112.054688 "/></g></g><g clip-rule="nonzero" clip-path="url(#ec481b3f47)"><g clip-rule="nonzero" clip-path="url(#bf9afa910d)"><g clip-rule="nonzero" clip-path="url(#37cc873dff)"><path style=" stroke:none;fill-rule:nonzero;fill:#80b918;fill-opacity:1;" d="M 168.1875 219.589844 L 185.230469 202.546875 L 228.308594 245.625 L 211.261719 262.667969 Z M 168.1875 219.589844 "/></g></g></g><g clip-rule="nonzero" clip-path="url(#eafb44cdae)"><g clip-rule="nonzero" clip-path="url(#48f9cd1b24)"><g clip-rule="nonzero" clip-path="url(#bb2145036c)"><path style=" stroke:none;fill-rule:nonzero;fill:#80b918;fill-opacity:1;" d="M 281.152344 181.40625 L 293.140625 202.320312 L 240.285156 232.617188 L 228.300781 211.703125 Z M 281.152344 181.40625 "/></g></g></g></g></svg>