<svg xmlns="http://www.w3.org/2000/svg" xmlns:xlink="http://www.w3.org/1999/xlink" width="600" zoomAndPan="magnify" viewBox="0 0 450 449.999984" height="600" preserveAspectRatio="xMidYMid meet" version="1.2"><defs><clipPath id="a769d0e755"><path d="M 207.734375 168.75 L 248.878906 168.75 L 248.878906 304.550781 L 207.734375 304.550781 Z M 207.734375 168.75 "/></clipPath><clipPath id="cbd731080a"><path d="M 248.878906 180 L 248.878906 293.285156 C 248.878906 296.269531 247.691406 299.128906 245.582031 301.238281 C 243.472656 303.351562 240.609375 304.535156 237.628906 304.535156 L 218.984375 304.535156 C 216 304.535156 213.140625 303.351562 211.03125 301.238281 C 208.921875 299.128906 207.734375 296.269531 207.734375 293.285156 L 207.734375 180 C 207.734375 177.015625 208.921875 174.15625 211.03125 172.046875 C 213.140625 169.933594 216 168.75 218.984375 168.75 L 237.628906 168.75 C 240.609375 168.75 243.472656 169.933594 245.582031 172.046875 C 247.691406 174.15625 248.878906 177.015625 248.878906 180 Z M 248.878906 180 "/></clipPath><clipPath id="aa0d48fc0f"><path d="M 168.070312 304.535156 L 288.542969 304.535156 L 288.542969 433 L 168.070312 433 Z M 168.070312 304.535156 "/></clipPath><clipPath id="67b4f3e90e"><path d="M 178.570312 304.535156 L 278.042969 304.535156 C 280.828125 304.535156 283.496094 305.644531 285.464844 307.613281 C 287.433594 309.582031 288.542969 312.25 288.542969 315.035156 L 288.542969 422.328125 C 288.542969 425.113281 287.433594 427.78125 285.464844 429.75 C 283.496094 431.71875 280.828125 432.828125 278.042969 432.828125 L 178.570312 432.828125 C 175.785156 432.828125 173.117188 431.71875 171.144531 429.75 C 169.175781 427.78125 168.070312 425.113281 168.070312 422.328125 L 168.070312 315.035156 C 168.070312 312.25 169.175781 309.582031 171.144531 307.613281 C 173.117188 305.644531 175.785156 304.535156 178.570312 304.535156 Z M 178.570312 304.535156 "/></clipPath><clipPath id="999fcb74b7"><path d="M 199.5625 304.535156 L 288.542969 304.535156 L 288.542969 433 L 199.5625 433 Z M 199.5625 304.535156 "/></clipPath><clipPath id="76264d673f"><path d="M 210.0625 304.535156 L 278.042969 304.535156 C 280.828125 304.535156 283.496094 305.644531 285.464844 307.613281 C 287.433594 309.582031 288.542969 312.25 288.542969 315.035156 L 288.542969 422.328125 C 288.542969 425.113281 287.433594 427.78125 285.464844 429.75 C 283.496094 431.71875 280.828125 432.828125 278.042969 432.828125 L 210.0625 432.828125 C 207.277344 432.828125 204.605469 431.71875 202.636719 429.75 C 200.667969 427.78125 199.5625 425.113281 199.5625 422.328125 L 199.5625 315.035156 C 199.5625 312.25 200.667969 309.582031 202.636719 307.613281 C 204.605469 305.644531 207.277344 304.535156 210.0625 304.535156 Z M 210.0625 304.535156 "/></clipPath><clipPath id="df7c6632af"><path d="M 158.449219 298.070312 L 298.1875 298.070312 L 298.1875 335.804688 L 158.449219 335.804688 Z M 158.449219 298.070312 "/></clipPath><clipPath id="ca3a83236c"><path d="M 168.949219 298.070312 L 287.664062 298.070312 C 290.449219 298.070312 293.117188 299.175781 295.085938 301.144531 C 297.058594 303.113281 298.164062 305.785156 298.164062 308.570312 L 298.164062 325.304688 C 298.164062 328.089844 297.058594 330.761719 295.085938 332.730469 C 293.117188 334.699219 290.449219 335.804688 287.664062 335.804688 L 168.949219 335.804688 C 166.164062 335.804688 163.492188 334.699219 161.523438 332.730469 C 159.554688 330.761719 158.449219 328.089844 158.449219 325.304688 L 158.449219 308.570312 C 158.449219 305.785156 159.554688 303.113281 161.523438 301.144531 C 163.492188 299.175781 166.164062 298.070312 168.949219 298.070312 Z M 168.949219 298.070312 "/></clipPath><clipPath id="b624c96b18"><path d="M 158.449219 430.203125 L 298.175781 430.203125 L 298.175781 450 L 158.449219 450 Z M 158.449219 430.203125 "/></clipPath><clipPath id="aef1d8d4b2"><path d="M 168.347656 430.203125 L 288.265625 430.203125 C 290.890625 430.203125 293.40625 431.246094 295.265625 433.105469 C 297.121094 434.960938 298.164062 437.476562 298.164062 440.101562 C 298.164062 442.726562 297.121094 445.246094 295.265625 447.101562 C 293.40625 448.957031 290.890625 450 288.265625 450 L 168.347656 450 C 165.722656 450 163.203125 448.957031 161.347656 447.101562 C 159.492188 445.246094 158.449219 442.726562 158.449219 440.101562 C 158.449219 437.476562 159.492188 434.960938 161.347656 433.105469 C 163.203125 431.246094 165.722656 430.203125 168.347656 430.203125 Z M 168.347656 430.203125 "/></clipPath><clipPath id="67a59057a9"><path d="M 229 240 L 286 240 L 286 284 L 229 284 Z M 229 240 "/></clipPath><clipPath id="80362ef75e"><path d="M 277.824219 236.636719 L 289.808594 257.550781 L 236.953125 287.84375 L 224.96875 266.933594 Z M 277.824219 236.636719 "/></clipPath><clipPath id="f6ccf3de2f"><path d="M 280.046875 263.144531 L 246.71875 282.25 C 241.328125 285.339844 234.453125 283.472656 231.363281 278.082031 L 230.566406 276.691406 C 227.476562 271.300781 229.339844 264.425781 234.730469 261.335938 L 268.0625 242.230469 C 273.453125 239.140625 280.328125 241.007812 283.417969 246.398438 L 284.214844 247.789062 C 287.304688 253.179688 285.4375 260.054688 280.046875 263.144531 Z M 280.046875 263.144531 "/></clipPath><clipPath id="6a73e14dff"><path d="M 175 210 L 224 210 L 224 264 L 175 264 Z M 175 210 "/></clipPath><clipPath id="44cf006baf"><path d="M 170.792969 220.96875 L 189.296875 205.523438 L 228.335938 252.292969 L 209.828125 267.738281 Z M 170.792969 220.96875 "/></clipPath><clipPath id="a1b9a1127b"><path d="M 196.507812 214.160156 L 221.125 243.652344 C 225.105469 248.425781 224.464844 255.519531 219.695312 259.5 L 218.464844 260.527344 C 213.691406 264.507812 206.597656 263.871094 202.617188 259.101562 L 178 229.605469 C 174.019531 224.835938 174.660156 217.742188 179.429688 213.757812 L 180.660156 212.730469 C 185.429688 208.75 192.523438 209.390625 196.507812 214.160156 Z M 196.507812 214.160156 "/></clipPath><clipPath id="b6617aa8f1"><path d="M 175.457031 191.457031 L 199.5625 191.457031 L 199.5625 229.3125 L 175.457031 229.3125 Z M 175.457031 191.457031 "/></clipPath><clipPath id="b71ef27a7d"><path d="M 199.5625 202.707031 L 199.5625 218.03125 C 199.5625 224.246094 194.523438 229.28125 188.3125 229.28125 L 186.707031 229.28125 C 180.492188 229.28125 175.457031 224.246094 175.457031 218.03125 L 175.457031 202.707031 C 175.457031 196.496094 180.492188 191.457031 186.707031 191.457031 L 188.3125 191.457031 C 194.523438 191.457031 199.5625 196.496094 199.5625 202.707031 Z M 199.5625 202.707031 "/></clipPath></defs><g id="1b900b913f"><g clip-rule="nonzero" clip-path="url(#a769d0e755)"><g clip-rule="nonzero" clip-path="url(#cbd731080a)"><path style=" stroke:none;fill-rule:nonzero;fill:#80b918;fill-opacity:1;" d="M 207.734375 168.75 L 248.878906 168.75 L 248.878906 304.550781 L 207.734375 304.550781 Z M 207.734375 168.75 "/></g></g><g clip-rule="nonzero" clip-path="url(#aa0d48fc0f)"><g clip-rule="nonzero" clip-path="url(#67b4f3e90e)"><path style=" stroke:none;fill-rule:nonzero;fill:#92530a;fill-opacity:1;" d="M 168.070312 304.535156 L 288.542969 304.535156 L 288.542969 433.007812 L 168.070312 433.007812 Z M 168.070312 304.535156 "/></g></g><g clip-rule="nonzero" clip-path="url(#999fcb74b7)"><g clip-rule="nonzero" clip-path="url(#76264d673f)"><path style=" stroke:none;fill-rule:nonzero;fill:#a8610d;fill-opacity:1;" d="M 199.5625 304.535156 L 288.542969 304.535156 L 288.542969 432.792969 L 199.5625 432.792969 Z M 199.5625 304.535156 "/></g></g><g clip-rule="nonzero" clip-path="url(#df7c6632af)"><g clip-rule="nonzero" clip-path="url(#ca3a83236c)"><path style=" stroke:none;fill-rule:nonzero;fill:#c87009;fill-opacity:1;" d="M 158.449219 298.070312 L 298.1875 298.070312 L 298.1875 335.804688 L 158.449219 335.804688 Z M 158.449219 298.070312 "/></g></g><g clip-rule="nonzero" clip-path="url(#b624c96b18)"><g clip-rule="nonzero" clip-path="url(#aef1d8d4b2)"><path style=" stroke:none;fill-rule:nonzero;fill:#a6a6a6;fill-opacity:1;" d="M 158.449219 430.203125 L 298.175781 430.203125 L 298.175781 450 L 158.449219 450 Z M 158.449219 430.203125 "/></g></g><g clip-rule="nonzero" clip-path="url(#67a59057a9)"><g clip-rule="nonzero" clip-path="url(#80362ef75e)"><g clip-rule="nonzero" clip-path="url(#f6ccf3de2f)"><path style=" stroke:none;fill-rule:nonzero;fill:#80b918;fill-opacity:1;" d="M 277.824219 236.636719 L 289.808594 257.550781 L 236.953125 287.84375 L 224.96875 266.933594 Z M 277.824219 236.636719 "/></g></g></g><g clip-rule="nonzero" clip-path="url(#6a73e14dff)"><g clip-rule="nonzero" clip-path="url(#44cf006baf)"><g clip-rule="nonzero" clip-path="url(#a1b9a1127b)"><path style=" stroke:none;fill-rule:nonzero;fill:#80b918;fill-opacity:1;" d="M 170.792969 220.96875 L 189.296875 205.523438 L 228.335938 252.292969 L 209.828125 267.738281 Z M 170.792969 220.96875 "/></g></g></g><g clip-rule="nonzero" clip-path="url(#b6617aa8f1)"><g clip-rule="nonzero" clip-path="url(#b71ef27a7d)"><path style=" stroke:none;fill-rule:nonzero;fill:#80b918;fill-opacity:1;" d="M 175.457031 191.457031 L 199.5625 191.457031 L 199.5625 229.3125 L 175.457031 229.3125 Z M 175.457031 191.457031 "/></g></g></g></svg>