<svg xmlns="http://www.w3.org/2000/svg" xmlns:xlink="http://www.w3.org/1999/xlink" width="600" zoomAndPan="magnify" viewBox="0 0 450 449.999984" height="600" preserveAspectRatio="xMidYMid meet" version="1.2"><defs><clipPath id="262777c0b6"><path d="M 207.734375 112.5 L 248.878906 112.5 L 248.878906 304.550781 L 207.734375 304.550781 Z M 207.734375 112.5 "/></clipPath><clipPath id="460340879c"><path d="M 248.878906 123.75 L 248.878906 293.285156 C 248.878906 296.269531 247.691406 299.128906 245.582031 301.238281 C 243.472656 303.347656 240.609375 304.535156 237.628906 304.535156 L 218.984375 304.535156 C 216 304.535156 213.140625 303.347656 211.03125 301.238281 C 208.921875 299.128906 207.734375 296.269531 207.734375 293.285156 L 207.734375 123.75 C 207.734375 120.765625 208.921875 117.90625 211.03125 115.796875 C 213.140625 113.683594 216 112.5 218.984375 112.5 L 237.628906 112.5 C 240.609375 112.5 243.472656 113.683594 245.582031 115.796875 C 247.691406 117.90625 248.878906 120.765625 248.878906 123.75 Z M 248.878906 123.75 "/></clipPath><clipPath id="bd3eaa67d2"><path d="M 168.070312 304.535156 L 288.542969 304.535156 L 288.542969 433 L 168.070312 433 Z M 168.070312 304.535156 "/></clipPath><clipPath id="aabf7129f6"><path d="M 178.570312 304.535156 L 278.042969 304.535156 C 280.828125 304.535156 283.496094 305.644531 285.464844 307.613281 C 287.433594 309.582031 288.542969 312.25 288.542969 315.035156 L 288.542969 422.328125 C 288.542969 425.113281 287.433594 427.78125 285.464844 429.75 C 283.496094 431.71875 280.828125 432.828125 278.042969 432.828125 L 178.570312 432.828125 C 175.785156 432.828125 173.117188 431.71875 171.144531 429.75 C 169.175781 427.78125 168.070312 425.113281 168.070312 422.328125 L 168.070312 315.035156 C 168.070312 312.25 169.175781 309.582031 171.144531 307.613281 C 173.117188 305.644531 175.785156 304.535156 178.570312 304.535156 Z M 178.570312 304.535156 "/></clipPath><clipPath id="43bc74051c"><path d="M 199.5625 304.535156 L 288.542969 304.535156 L 288.542969 433 L 199.5625 433 Z M 199.5625 304.535156 "/></clipPath><clipPath id="fdd0a511c6"><path d="M 210.0625 304.535156 L 278.042969 304.535156 C 280.828125 304.535156 283.496094 305.644531 285.464844 307.613281 C 287.433594 309.582031 288.542969 312.25 288.542969 315.035156 L 288.542969 422.328125 C 288.542969 425.113281 287.433594 427.78125 285.464844 429.75 C 283.496094 431.71875 280.828125 432.828125 278.042969 432.828125 L 210.0625 432.828125 C 207.277344 432.828125 204.605469 431.71875 202.636719 429.75 C 200.667969 427.78125 199.5625 425.113281 199.5625 422.328125 L 199.5625 315.035156 C 199.5625 312.25 200.667969 309.582031 202.636719 307.613281 C 204.605469 305.644531 207.277344 304.535156 210.0625 304.535156 Z M 210.0625 304.535156 "/></clipPath><clipPath id="81fced91bc"><path d="M 158.449219 298.070312 L 298.1875 298.070312 L 298.1875 335.804688 L 158.449219 335.804688 Z M 158.449219 298.070312 "/></clipPath><clipPath id="a90ddf3ee1"><path d="M 168.949219 298.070312 L 287.664062 298.070312 C 290.449219 298.070312 293.117188 299.175781 295.085938 301.144531 C 297.058594 303.113281 298.164062 305.785156 298.164062 308.570312 L 298.164062 325.304688 C 298.164062 328.089844 297.058594 330.761719 295.085938 332.730469 C 293.117188 334.699219 290.449219 335.804688 287.664062 335.804688 L 168.949219 335.804688 C 166.164062 335.804688 163.492188 334.699219 161.523438 332.730469 C 159.554688 330.761719 158.449219 328.089844 158.449219 325.304688 L 158.449219 308.570312 C 158.449219 305.785156 159.554688 303.113281 161.523438 301.144531 C 163.492188 299.175781 166.164062 298.070312 168.949219 298.070312 Z M 168.949219 298.070312 "/></clipPath><clipPath id="53fd5cb914"><path d="M 158.449219 430.203125 L 298.175781 430.203125 L 298.175781 450 L 158.449219 450 Z M 158.449219 430.203125 "/></clipPath><clipPath id="5b2e09c5d9"><path d="M 168.347656 430.203125 L 288.265625 430.203125 C 290.890625 430.203125 293.40625 431.246094 295.265625 433.105469 C 297.121094 434.960938 298.164062 437.476562 298.164062 440.101562 C 298.164062 442.726562 297.121094 445.246094 295.265625 447.101562 C 293.40625 448.957031 290.890625 450 288.265625 450 L 168.347656 450 C 165.722656 450 163.203125 448.957031 161.347656 447.101562 C 159.492188 445.246094 158.449219 442.726562 158.449219 440.101562 C 158.449219 437.476562 159.492188 434.960938 161.347656 433.105469 C 163.203125 431.246094 165.722656 430.203125 168.347656 430.203125 Z M 168.347656 430.203125 "/></clipPath><clipPath id="99859b3aa6"><path d="M 229 190 L 286 190 L 286 234 L 229 234 Z M 229 190 "/></clipPath><clipPath id="c5100b155c"><path d="M 277.847656 186.53125 L 289.835938 207.445312 L 236.980469 237.738281 L 224.992188 216.828125 Z M 277.847656 186.53125 "/></clipPath><clipPath id="fb23a429d9"><path d="M 280.074219 213.039062 L 246.742188 232.144531 C 241.351562 235.234375 234.476562 233.367188 231.386719 227.976562 L 230.589844 226.585938 C 227.5 221.195312 229.367188 214.320312 234.757812 211.230469 L 268.085938 192.125 C 273.476562 189.035156 280.351562 190.902344 283.441406 196.292969 L 284.238281 197.683594 C 287.328125 203.074219 285.464844 209.949219 280.074219 213.039062 Z M 280.074219 213.039062 "/></clipPath><clipPath id="57f57667b8"><path d="M 175 185 L 224 185 L 224 240 L 175 240 Z M 175 185 "/></clipPath><clipPath id="698cccf4cb"><path d="M 170.792969 196.84375 L 189.296875 181.398438 L 228.335938 228.171875 L 209.828125 243.617188 Z M 170.792969 196.84375 "/></clipPath><clipPath id="3ed5a06312"><path d="M 196.507812 190.035156 L 221.125 219.53125 C 225.105469 224.300781 224.464844 231.394531 219.695312 235.378906 L 218.464844 236.40625 C 213.691406 240.386719 206.597656 239.746094 202.617188 234.976562 L 178 205.484375 C 174.019531 200.710938 174.660156 193.617188 179.429688 189.636719 L 180.660156 188.609375 C 185.429688 184.628906 192.523438 185.265625 196.507812 190.035156 Z M 196.507812 190.035156 "/></clipPath><clipPath id="258249f46d"><path d="M 175.457031 144.628906 L 199.5625 144.628906 L 199.5625 205.171875 L 175.457031 205.171875 Z M 175.457031 144.628906 "/></clipPath><clipPath id="b206844619"><path d="M 199.5625 155.878906 L 199.5625 193.910156 C 199.5625 200.121094 194.523438 205.160156 188.3125 205.160156 L 186.707031 205.160156 C 180.492188 205.160156 175.457031 200.121094 175.457031 193.910156 L 175.457031 155.878906 C 175.457031 149.664062 180.492188 144.628906 186.707031 144.628906 L 188.3125 144.628906 C 194.523438 144.628906 199.5625 149.664062 199.5625 155.878906 Z M 199.5625 155.878906 "/></clipPath><clipPath id="fb51c16754"><path d="M 261.613281 174.894531 L 285.714844 174.894531 L 285.714844 212.179688 L 261.613281 212.179688 Z M 261.613281 174.894531 "/></clipPath><clipPath id="2c4612b308"><path d="M 285.714844 186.144531 L 285.714844 200.878906 C 285.714844 207.09375 280.679688 212.128906 274.464844 212.128906 L 272.863281 212.128906 C 266.648438 212.128906 261.613281 207.09375 261.613281 200.878906 L 261.613281 186.144531 C 261.613281 179.929688 266.648438 174.894531 272.863281 174.894531 L 274.464844 174.894531 C 280.679688 174.894531 285.714844 179.929688 285.714844 186.144531 Z M 285.714844 186.144531 "/></clipPath><clipPath id="ab29102114"><path d="M 172 236 L 224 236 L 224 288 L 172 288 Z M 172 236 "/></clipPath><clipPath id="7f462a7fca"><path d="M 168.1875 249.21875 L 185.230469 232.171875 L 228.308594 275.25 L 211.261719 292.296875 Z M 168.1875 249.21875 "/></clipPath><clipPath id="4a583045cb"><path d="M 193.183594 240.128906 L 220.351562 267.292969 C 224.742188 271.6875 224.742188 278.808594 220.351562 283.203125 L 219.214844 284.335938 C 214.824219 288.730469 207.699219 288.730469 203.304688 284.335938 L 176.140625 257.171875 C 171.746094 252.777344 171.746094 245.65625 176.140625 241.261719 L 177.273438 240.128906 C 181.667969 235.734375 188.792969 235.734375 193.183594 240.128906 Z M 193.183594 240.128906 "/></clipPath><clipPath id="f19175ce5a"><path d="M 229 240 L 286 240 L 286 284 L 229 284 Z M 229 240 "/></clipPath><clipPath id="3e6ad9ebbd"><path d="M 277.824219 236.636719 L 289.808594 257.550781 L 236.953125 287.847656 L 224.96875 266.933594 Z M 277.824219 236.636719 "/></clipPath><clipPath id="0c7111d71f"><path d="M 280.046875 263.144531 L 246.71875 282.25 C 241.328125 285.339844 234.453125 283.472656 231.363281 278.082031 L 230.566406 276.691406 C 227.476562 271.300781 229.339844 264.425781 234.730469 261.335938 L 268.0625 242.230469 C 273.453125 239.140625 280.328125 241.007812 283.417969 246.398438 L 284.214844 247.789062 C 287.304688 253.179688 285.4375 260.054688 280.046875 263.144531 Z M 280.046875 263.144531 "/></clipPath></defs><g id="0454f2b069"><g clip-rule="nonzero" clip-path="url(#262777c0b6)"><g clip-rule="nonzero" clip-path="url(#460340879c)"><path style=" stroke:none;fill-rule:nonzero;fill:#80b918;fill-opacity:1;" d="M 207.734375 112.5 L 248.878906 112.5 L 248.878906 304.550781 L 207.734375 304.550781 Z M 207.734375 112.5 "/></g></g><g clip-rule="nonzero" clip-path="url(#bd3eaa67d2)"><g clip-rule="nonzero" clip-path="url(#aabf7129f6)"><path style=" stroke:none;fill-rule:nonzero;fill:#92530a;fill-opacity:1;" d="M 168.070312 304.535156 L 288.542969 304.535156 L 288.542969 433.007812 L 168.070312 433.007812 Z M 168.070312 304.535156 "/></g></g><g clip-rule="nonzero" clip-path="url(#43bc74051c)"><g clip-rule="nonzero" clip-path="url(#fdd0a511c6)"><path style=" stroke:none;fill-rule:nonzero;fill:#a8610d;fill-opacity:1;" d="M 199.5625 304.535156 L 288.542969 304.535156 L 288.542969 432.792969 L 199.5625 432.792969 Z M 199.5625 304.535156 "/></g></g><g clip-rule="nonzero" clip-path="url(#81fced91bc)"><g clip-rule="nonzero" clip-path="url(#a90ddf3ee1)"><path style=" stroke:none;fill-rule:nonzero;fill:#c87009;fill-opacity:1;" d="M 158.449219 298.070312 L 298.1875 298.070312 L 298.1875 335.804688 L 158.449219 335.804688 Z M 158.449219 298.070312 "/></g></g><g clip-rule="nonzero" clip-path="url(#53fd5cb914)"><g clip-rule="nonzero" clip-path="url(#5b2e09c5d9)"><path style=" stroke:none;fill-rule:nonzero;fill:#a6a6a6;fill-opacity:1;" d="M 158.449219 430.203125 L 298.175781 430.203125 L 298.175781 450 L 158.449219 450 Z M 158.449219 430.203125 "/></g></g><g clip-rule="nonzero" clip-path="url(#99859b3aa6)"><g clip-rule="nonzero" clip-path="url(#c5100b155c)"><g clip-rule="nonzero" clip-path="url(#fb23a429d9)"><path style=" stroke:none;fill-rule:nonzero;fill:#80b918;fill-opacity:1;" d="M 277.847656 186.53125 L 289.835938 207.445312 L 236.980469 237.738281 L 224.992188 216.828125 Z M 277.847656 186.53125 "/></g></g></g><g clip-rule="nonzero" clip-path="url(#57f57667b8)"><g clip-rule="nonzero" clip-path="url(#698cccf4cb)"><g clip-rule="nonzero" clip-path="url(#3ed5a06312)"><path style=" stroke:none;fill-rule:nonzero;fill:#80b918;fill-opacity:1;" d="M 170.792969 196.84375 L 189.296875 181.398438 L 228.335938 228.171875 L 209.828125 243.617188 Z M 170.792969 196.84375 "/></g></g></g><g clip-rule="nonzero" clip-path="url(#258249f46d)"><g clip-rule="nonzero" clip-path="url(#b206844619)"><path style=" stroke:none;fill-rule:nonzero;fill:#80b918;fill-opacity:1;" d="M 175.457031 144.628906 L 199.5625 144.628906 L 199.5625 205.171875 L 175.457031 205.171875 Z M 175.457031 144.628906 "/></g></g><g clip-rule="nonzero" clip-path="url(#fb51c16754)"><g clip-rule="nonzero" clip-path="url(#2c4612b308)"><path style=" stroke:none;fill-rule:nonzero;fill:#80b918;fill-opacity:1;" d="M 261.613281 174.894531 L 285.714844 174.894531 L 285.714844 212.085938 L 261.613281 212.085938 Z M 261.613281 174.894531 "/></g></g><g clip-rule="nonzero" clip-path="url(#ab29102114)"><g clip-rule="nonzero" clip-path="url(#7f462a7fca)"><g clip-rule="nonzero" clip-path="url(#4a583045cb)"><path style=" stroke:none;fill-rule:nonzero;fill:#80b918;fill-opacity:1;" d="M 168.1875 249.21875 L 185.230469 232.171875 L 228.308594 275.25 L 211.261719 292.296875 Z M 168.1875 249.21875 "/></g></g></g><g clip-rule="nonzero" clip-path="url(#f19175ce5a)"><g clip-rule="nonzero" clip-path="url(#3e6ad9ebbd)"><g clip-rule="nonzero" clip-path="url(#0c7111d71f)"><path style=" stroke:none;fill-rule:nonzero;fill:#80b918;fill-opacity:1;" d="M 277.824219 236.636719 L 289.808594 257.550781 L 236.953125 287.847656 L 224.96875 266.933594 Z M 277.824219 236.636719 "/></g></g></g></g></svg>