<svg xmlns="http://www.w3.org/2000/svg" xmlns:xlink="http://www.w3.org/1999/xlink" width="600" zoomAndPan="magnify" viewBox="0 0 450 449.999984" height="600" preserveAspectRatio="xMidYMid meet" version="1.2"><defs><clipPath id="c000421c05"><path d="M 219.019531 162.851562 L 230.980469 162.851562 L 230.980469 322.976562 L 219.019531 322.976562 Z M 219.019531 162.851562 "/></clipPath><clipPath id="e20d94d2a9"><path d="M 167 111 L 227 111 L 227 175.679688 L 167 175.679688 Z M 167 111 "/></clipPath><clipPath id="77f3d6053c"><path d="M 223 112 L 290 112 L 290 170 L 223 170 Z M 223 112 "/></clipPath><clipPath id="6056c391f8"><path d="M 220.011719 173.367188 L 222.179688 105.902344 L 289.644531 108.070312 L 287.476562 175.535156 Z M 220.011719 173.367188 "/></clipPath><clipPath id="85a16e6621"><path d="M 220.011719 173.367188 L 222.179688 105.902344 L 289.644531 108.070312 L 287.476562 175.535156 Z M 220.011719 173.367188 "/></clipPath><clipPath id="25ffc585fb"><path d="M 223 196 L 290 196 L 290 254 L 223 254 Z M 223 196 "/></clipPath><clipPath id="cd2d3d0d45"><path d="M 220.238281 257.632812 L 222.40625 190.167969 L 289.871094 192.339844 L 287.703125 259.804688 Z M 220.238281 257.632812 "/></clipPath><clipPath id="e37444b847"><path d="M 220.238281 257.632812 L 222.40625 190.167969 L 289.871094 192.339844 L 287.703125 259.804688 Z M 220.238281 257.632812 "/></clipPath><clipPath id="2e44b70bdf"><path d="M 162 215.5625 L 221 215.5625 L 221 280 L 162 280 Z M 162 215.5625 "/></clipPath><clipPath id="026246f404"><path d="M 168.070312 304.535156 L 288.542969 304.535156 L 288.542969 433 L 168.070312 433 Z M 168.070312 304.535156 "/></clipPath><clipPath id="0ee965497b"><path d="M 178.570312 304.535156 L 278.042969 304.535156 C 280.828125 304.535156 283.496094 305.644531 285.464844 307.613281 C 287.433594 309.582031 288.542969 312.25 288.542969 315.035156 L 288.542969 422.328125 C 288.542969 425.113281 287.433594 427.78125 285.464844 429.75 C 283.496094 431.71875 280.828125 432.828125 278.042969 432.828125 L 178.570312 432.828125 C 175.785156 432.828125 173.117188 431.71875 171.144531 429.75 C 169.175781 427.78125 168.070312 425.113281 168.070312 422.328125 L 168.070312 315.035156 C 168.070312 312.25 169.175781 309.582031 171.144531 307.613281 C 173.117188 305.644531 175.785156 304.535156 178.570312 304.535156 Z M 178.570312 304.535156 "/></clipPath><clipPath id="5435438d73"><path d="M 199.5625 304.535156 L 288.542969 304.535156 L 288.542969 433 L 199.5625 433 Z M 199.5625 304.535156 "/></clipPath><clipPath id="c83f6e967a"><path d="M 210.0625 304.535156 L 278.042969 304.535156 C 280.828125 304.535156 283.496094 305.644531 285.464844 307.613281 C 287.433594 309.582031 288.542969 312.25 288.542969 315.035156 L 288.542969 422.328125 C 288.542969 425.113281 287.433594 427.78125 285.464844 429.75 C 283.496094 431.71875 280.828125 432.828125 278.042969 432.828125 L 210.0625 432.828125 C 207.277344 432.828125 204.605469 431.71875 202.636719 429.75 C 200.667969 427.78125 199.5625 425.113281 199.5625 422.328125 L 199.5625 315.035156 C 199.5625 312.25 200.667969 309.582031 202.636719 307.613281 C 204.605469 305.644531 207.277344 304.535156 210.0625 304.535156 Z M 210.0625 304.535156 "/></clipPath><clipPath id="58da9b4c8c"><path d="M 158.449219 298.070312 L 298.1875 298.070312 L 298.1875 335.804688 L 158.449219 335.804688 Z M 158.449219 298.070312 "/></clipPath><clipPath id="25b8c2428f"><path d="M 168.949219 298.070312 L 287.664062 298.070312 C 290.449219 298.070312 293.117188 299.175781 295.085938 301.144531 C 297.058594 303.113281 298.164062 305.785156 298.164062 308.570312 L 298.164062 325.304688 C 298.164062 328.089844 297.058594 330.761719 295.085938 332.730469 C 293.117188 334.699219 290.449219 335.804688 287.664062 335.804688 L 168.949219 335.804688 C 166.164062 335.804688 163.492188 334.699219 161.523438 332.730469 C 159.554688 330.761719 158.449219 328.089844 158.449219 325.304688 L 158.449219 308.570312 C 158.449219 305.785156 159.554688 303.113281 161.523438 301.144531 C 163.492188 299.175781 166.164062 298.070312 168.949219 298.070312 Z M 168.949219 298.070312 "/></clipPath><clipPath id="b5c7c34359"><path d="M 158.449219 430.203125 L 298.175781 430.203125 L 298.175781 450 L 158.449219 450 Z M 158.449219 430.203125 "/></clipPath><clipPath id="84887b8bf3"><path d="M 168.347656 430.203125 L 288.265625 430.203125 C 290.890625 430.203125 293.40625 431.246094 295.265625 433.105469 C 297.121094 434.960938 298.164062 437.476562 298.164062 440.101562 C 298.164062 442.726562 297.121094 445.246094 295.265625 447.101562 C 293.40625 448.957031 290.890625 450 288.265625 450 L 168.347656 450 C 165.722656 450 163.203125 448.957031 161.347656 447.101562 C 159.492188 445.246094 158.449219 442.726562 158.449219 440.101562 C 158.449219 437.476562 159.492188 434.960938 161.347656 433.105469 C 163.203125 431.246094 165.722656 430.203125 168.347656 430.203125 Z M 168.347656 430.203125 "/></clipPath></defs><g id="25cf1a0ea2"><g clip-rule="nonzero" clip-path="url(#c000421c05)"><path style=" stroke:none;fill-rule:nonzero;fill:#80b918;fill-opacity:1;" d="M 219.019531 162.851562 L 230.980469 162.851562 L 230.980469 322.957031 L 219.019531 322.957031 Z M 219.019531 162.851562 "/></g><g clip-rule="nonzero" clip-path="url(#e20d94d2a9)"><path style=" stroke:none;fill-rule:nonzero;fill:#80b918;fill-opacity:1;" d="M 169.371094 111.628906 C 169.371094 111.628906 163.402344 122.949219 174.878906 149.019531 C 186.355469 175.09375 224.875 175.433594 224.875 175.433594 C 224.875 175.433594 230.84375 156.230469 216.160156 132.207031 C 201.480469 108.179688 169.371094 111.628906 169.371094 111.628906 Z M 169.371094 111.628906 "/></g><g clip-rule="nonzero" clip-path="url(#77f3d6053c)"><g clip-rule="nonzero" clip-path="url(#6056c391f8)"><g clip-rule="nonzero" clip-path="url(#85a16e6621)"><path style=" stroke:none;fill-rule:nonzero;fill:#80b918;fill-opacity:1;" d="M 223.652344 167.484375 C 223.652344 167.484375 234.773438 173.8125 261.199219 163.179688 C 287.625 152.546875 289.207031 114.054688 289.207031 114.054688 C 289.207031 114.054688 270.207031 107.476562 245.722656 121.375 C 221.234375 135.277344 223.652344 167.484375 223.652344 167.484375 Z M 223.652344 167.484375 "/></g></g></g><g clip-rule="nonzero" clip-path="url(#25ffc585fb)"><g clip-rule="nonzero" clip-path="url(#cd2d3d0d45)"><g clip-rule="nonzero" clip-path="url(#e37444b847)"><path style=" stroke:none;fill-rule:nonzero;fill:#80b918;fill-opacity:1;" d="M 223.875 251.753906 C 223.875 251.753906 234.988281 258.078125 261.402344 247.449219 C 287.816406 236.824219 289.398438 198.355469 289.398438 198.355469 C 289.398438 198.355469 270.40625 191.777344 245.933594 205.671875 C 221.460938 219.566406 223.875 251.753906 223.875 251.753906 Z M 223.875 251.753906 "/></g></g></g><g clip-rule="nonzero" clip-path="url(#2e44b70bdf)"><path style=" stroke:none;fill-rule:nonzero;fill:#80b918;fill-opacity:1;" d="M 218.980469 279.601562 C 218.980469 279.601562 224.96875 268.242188 213.449219 242.074219 C 201.929688 215.90625 163.269531 215.5625 163.269531 215.5625 C 163.269531 215.5625 157.28125 234.835938 172.015625 258.949219 C 186.75 283.0625 218.980469 279.601562 218.980469 279.601562 Z M 218.980469 279.601562 "/></g><g clip-rule="nonzero" clip-path="url(#026246f404)"><g clip-rule="nonzero" clip-path="url(#0ee965497b)"><path style=" stroke:none;fill-rule:nonzero;fill:#92530a;fill-opacity:1;" d="M 168.070312 304.535156 L 288.542969 304.535156 L 288.542969 433.007812 L 168.070312 433.007812 Z M 168.070312 304.535156 "/></g></g><g clip-rule="nonzero" clip-path="url(#5435438d73)"><g clip-rule="nonzero" clip-path="url(#c83f6e967a)"><path style=" stroke:none;fill-rule:nonzero;fill:#a8610d;fill-opacity:1;" d="M 199.5625 304.535156 L 288.542969 304.535156 L 288.542969 432.792969 L 199.5625 432.792969 Z M 199.5625 304.535156 "/></g></g><g clip-rule="nonzero" clip-path="url(#58da9b4c8c)"><g clip-rule="nonzero" clip-path="url(#25b8c2428f)"><path style=" stroke:none;fill-rule:nonzero;fill:#c87009;fill-opacity:1;" d="M 158.449219 298.070312 L 298.1875 298.070312 L 298.1875 335.804688 L 158.449219 335.804688 Z M 158.449219 298.070312 "/></g></g><g clip-rule="nonzero" clip-path="url(#b5c7c34359)"><g clip-rule="nonzero" clip-path="url(#84887b8bf3)"><path style=" stroke:none;fill-rule:nonzero;fill:#a6a6a6;fill-opacity:1;" d="M 158.449219 430.203125 L 298.175781 430.203125 L 298.175781 450 L 158.449219 450 Z M 158.449219 430.203125 "/></g></g></g></svg>