<svg xmlns="http://www.w3.org/2000/svg" xmlns:xlink="http://www.w3.org/1999/xlink" width="600" zoomAndPan="magnify" viewBox="0 0 450 449.999984" height="600" preserveAspectRatio="xMidYMid meet" version="1.2"><defs><clipPath id="2cea4e728b"><path d="M 219.019531 104.625 L 230.980469 104.625 L 230.980469 322.976562 L 219.019531 322.976562 Z M 219.019531 104.625 "/></clipPath><clipPath id="b16e290791"><path d="M 167 56 L 227 56 L 227 120.441406 L 167 120.441406 Z M 167 56 "/></clipPath><clipPath id="0155d1c2db"><path d="M 223 57 L 290 57 L 290 115 L 223 115 Z M 223 57 "/></clipPath><clipPath id="8cc6309069"><path d="M 220.011719 118.125 L 222.179688 50.660156 L 289.644531 52.828125 L 287.476562 120.292969 Z M 220.011719 118.125 "/></clipPath><clipPath id="7a2ee44962"><path d="M 220.011719 118.125 L 222.179688 50.660156 L 289.644531 52.828125 L 287.476562 120.292969 Z M 220.011719 118.125 "/></clipPath><clipPath id="0490395744"><path d="M 223 138 L 290 138 L 290 196 L 223 196 Z M 223 138 "/></clipPath><clipPath id="583fb75b92"><path d="M 220.238281 199.566406 L 222.40625 132.101562 L 289.871094 134.273438 L 287.703125 201.738281 Z M 220.238281 199.566406 "/></clipPath><clipPath id="d5777d9b70"><path d="M 220.238281 199.566406 L 222.40625 132.101562 L 289.871094 134.273438 L 287.703125 201.738281 Z M 220.238281 199.566406 "/></clipPath><clipPath id="7389283e5f"><path d="M 162 157.496094 L 221 157.496094 L 221 222 L 162 222 Z M 162 157.496094 "/></clipPath><clipPath id="91a898f197"><path d="M 168.070312 304.535156 L 288.542969 304.535156 L 288.542969 433 L 168.070312 433 Z M 168.070312 304.535156 "/></clipPath><clipPath id="54bd2632cb"><path d="M 178.570312 304.535156 L 278.042969 304.535156 C 280.828125 304.535156 283.496094 305.644531 285.464844 307.613281 C 287.433594 309.582031 288.542969 312.25 288.542969 315.035156 L 288.542969 422.328125 C 288.542969 425.113281 287.433594 427.78125 285.464844 429.75 C 283.496094 431.71875 280.828125 432.828125 278.042969 432.828125 L 178.570312 432.828125 C 175.785156 432.828125 173.117188 431.71875 171.144531 429.75 C 169.175781 427.78125 168.070312 425.113281 168.070312 422.328125 L 168.070312 315.035156 C 168.070312 312.25 169.175781 309.582031 171.144531 307.613281 C 173.117188 305.644531 175.785156 304.535156 178.570312 304.535156 Z M 178.570312 304.535156 "/></clipPath><clipPath id="fdef905666"><path d="M 199.5625 304.535156 L 288.542969 304.535156 L 288.542969 433 L 199.5625 433 Z M 199.5625 304.535156 "/></clipPath><clipPath id="33348f781e"><path d="M 210.0625 304.535156 L 278.042969 304.535156 C 280.828125 304.535156 283.496094 305.644531 285.464844 307.613281 C 287.433594 309.582031 288.542969 312.25 288.542969 315.035156 L 288.542969 422.328125 C 288.542969 425.113281 287.433594 427.78125 285.464844 429.75 C 283.496094 431.71875 280.828125 432.828125 278.042969 432.828125 L 210.0625 432.828125 C 207.277344 432.828125 204.605469 431.71875 202.636719 429.75 C 200.667969 427.78125 199.5625 425.113281 199.5625 422.328125 L 199.5625 315.035156 C 199.5625 312.25 200.667969 309.582031 202.636719 307.613281 C 204.605469 305.644531 207.277344 304.535156 210.0625 304.535156 Z M 210.0625 304.535156 "/></clipPath><clipPath id="0c11ad4289"><path d="M 158.449219 298.070312 L 298.1875 298.070312 L 298.1875 335.804688 L 158.449219 335.804688 Z M 158.449219 298.070312 "/></clipPath><clipPath id="d355a3f9f5"><path d="M 168.949219 298.070312 L 287.664062 298.070312 C 290.449219 298.070312 293.117188 299.175781 295.085938 301.144531 C 297.058594 303.113281 298.164062 305.785156 298.164062 308.570312 L 298.164062 325.304688 C 298.164062 328.089844 297.058594 330.761719 295.085938 332.730469 C 293.117188 334.699219 290.449219 335.804688 287.664062 335.804688 L 168.949219 335.804688 C 166.164062 335.804688 163.492188 334.699219 161.523438 332.730469 C 159.554688 330.761719 158.449219 328.089844 158.449219 325.304688 L 158.449219 308.570312 C 158.449219 305.785156 159.554688 303.113281 161.523438 301.144531 C 163.492188 299.175781 166.164062 298.070312 168.949219 298.070312 Z M 168.949219 298.070312 "/></clipPath><clipPath id="d2a9ecd6b0"><path d="M 158.449219 430.203125 L 298.175781 430.203125 L 298.175781 450 L 158.449219 450 Z M 158.449219 430.203125 "/></clipPath><clipPath id="db4d0370b0"><path d="M 168.347656 430.203125 L 288.265625 430.203125 C 290.890625 430.203125 293.40625 431.246094 295.265625 433.105469 C 297.121094 434.960938 298.164062 437.476562 298.164062 440.101562 C 298.164062 442.726562 297.121094 445.246094 295.265625 447.101562 C 293.40625 448.957031 290.890625 450 288.265625 450 L 168.347656 450 C 165.722656 450 163.203125 448.957031 161.347656 447.101562 C 159.492188 445.246094 158.449219 442.726562 158.449219 440.101562 C 158.449219 437.476562 159.492188 434.960938 161.347656 433.105469 C 163.203125 431.246094 165.722656 430.203125 168.347656 430.203125 Z M 168.347656 430.203125 "/></clipPath><clipPath id="6eb3a82fc8"><path d="M 222 224 L 289 224 L 289 282 L 222 282 Z M 222 224 "/></clipPath><clipPath id="0c4c27420f"><path d="M 219.019531 285.765625 L 221.1875 218.300781 L 288.652344 220.472656 L 286.484375 287.9375 Z M 219.019531 285.765625 "/></clipPath><clipPath id="ba771cbb9d"><path d="M 219.019531 285.765625 L 221.1875 218.300781 L 288.652344 220.472656 L 286.484375 287.9375 Z M 219.019531 285.765625 "/></clipPath></defs><g id="31e57ebf86"><g clip-rule="nonzero" clip-path="url(#2cea4e728b)"><path style=" stroke:none;fill-rule:nonzero;fill:#80b918;fill-opacity:1;" d="M 219.019531 104.625 L 230.980469 104.625 L 230.980469 322.960938 L 219.019531 322.960938 Z M 219.019531 104.625 "/></g><g clip-rule="nonzero" clip-path="url(#b16e290791)"><path style=" stroke:none;fill-rule:nonzero;fill:#80b918;fill-opacity:1;" d="M 169.371094 56.390625 C 169.371094 56.390625 163.402344 67.707031 174.878906 93.78125 C 186.355469 119.851562 224.875 120.195312 224.875 120.195312 C 224.875 120.195312 230.84375 100.992188 216.160156 76.964844 C 201.480469 52.941406 169.371094 56.390625 169.371094 56.390625 Z M 169.371094 56.390625 "/></g><g clip-rule="nonzero" clip-path="url(#0155d1c2db)"><g clip-rule="nonzero" clip-path="url(#8cc6309069)"><g clip-rule="nonzero" clip-path="url(#7a2ee44962)"><path style=" stroke:none;fill-rule:nonzero;fill:#80b918;fill-opacity:1;" d="M 223.652344 112.242188 C 223.652344 112.242188 234.773438 118.570312 261.199219 107.9375 C 287.625 97.304688 289.207031 58.816406 289.207031 58.816406 C 289.207031 58.816406 270.207031 52.234375 245.722656 66.136719 C 221.234375 80.039062 223.652344 112.242188 223.652344 112.242188 Z M 223.652344 112.242188 "/></g></g></g><g clip-rule="nonzero" clip-path="url(#0490395744)"><g clip-rule="nonzero" clip-path="url(#583fb75b92)"><g clip-rule="nonzero" clip-path="url(#d5777d9b70)"><path style=" stroke:none;fill-rule:nonzero;fill:#80b918;fill-opacity:1;" d="M 223.875 193.6875 C 223.875 193.6875 234.988281 200.011719 261.402344 189.386719 C 287.816406 178.757812 289.398438 140.289062 289.398438 140.289062 C 289.398438 140.289062 270.40625 133.710938 245.933594 147.605469 C 221.460938 161.5 223.875 193.6875 223.875 193.6875 Z M 223.875 193.6875 "/></g></g></g><g clip-rule="nonzero" clip-path="url(#7389283e5f)"><path style=" stroke:none;fill-rule:nonzero;fill:#80b918;fill-opacity:1;" d="M 218.980469 221.535156 C 218.980469 221.535156 224.96875 210.175781 213.449219 184.007812 C 201.929688 157.84375 163.269531 157.496094 163.269531 157.496094 C 163.269531 157.496094 157.28125 176.769531 172.015625 200.882812 C 186.75 224.996094 218.980469 221.535156 218.980469 221.535156 Z M 218.980469 221.535156 "/></g><g clip-rule="nonzero" clip-path="url(#91a898f197)"><g clip-rule="nonzero" clip-path="url(#54bd2632cb)"><path style=" stroke:none;fill-rule:nonzero;fill:#92530a;fill-opacity:1;" d="M 168.070312 304.535156 L 288.542969 304.535156 L 288.542969 433.007812 L 168.070312 433.007812 Z M 168.070312 304.535156 "/></g></g><g clip-rule="nonzero" clip-path="url(#fdef905666)"><g clip-rule="nonzero" clip-path="url(#33348f781e)"><path style=" stroke:none;fill-rule:nonzero;fill:#a8610d;fill-opacity:1;" d="M 199.5625 304.535156 L 288.542969 304.535156 L 288.542969 432.792969 L 199.5625 432.792969 Z M 199.5625 304.535156 "/></g></g><g clip-rule="nonzero" clip-path="url(#0c11ad4289)"><g clip-rule="nonzero" clip-path="url(#d355a3f9f5)"><path style=" stroke:none;fill-rule:nonzero;fill:#c87009;fill-opacity:1;" d="M 158.449219 298.070312 L 298.1875 298.070312 L 298.1875 335.804688 L 158.449219 335.804688 Z M 158.449219 298.070312 "/></g></g><g clip-rule="nonzero" clip-path="url(#d2a9ecd6b0)"><g clip-rule="nonzero" clip-path="url(#db4d0370b0)"><path style=" stroke:none;fill-rule:nonzero;fill:#a6a6a6;fill-opacity:1;" d="M 158.449219 430.203125 L 298.175781 430.203125 L 298.175781 450 L 158.449219 450 Z M 158.449219 430.203125 "/></g></g><g clip-rule="nonzero" clip-path="url(#6eb3a82fc8)"><g clip-rule="nonzero" clip-path="url(#0c4c27420f)"><g clip-rule="nonzero" clip-path="url(#ba771cbb9d)"><path style=" stroke:none;fill-rule:nonzero;fill:#80b918;fill-opacity:1;" d="M 222.65625 279.886719 C 222.65625 279.886719 233.773438 286.210938 260.183594 275.585938 C 286.597656 264.957031 288.179688 226.488281 288.179688 226.488281 C 288.179688 226.488281 269.1875 219.910156 244.714844 233.804688 C 220.242188 247.699219 222.65625 279.886719 222.65625 279.886719 Z M 222.65625 279.886719 "/></g></g></g></g></svg>