<svg xmlns="http://www.w3.org/2000/svg" xmlns:xlink="http://www.w3.org/1999/xlink" width="600" zoomAndPan="magnify" viewBox="0 0 450 449.999984" height="600" preserveAspectRatio="xMidYMid meet" version="1.2"><defs><clipPath id="1c68a61d57"><path d="M 219.019531 189.355469 L 230.980469 189.355469 L 230.980469 322.976562 L 219.019531 322.976562 Z M 219.019531 189.355469 "/></clipPath><clipPath id="f7499cbc04"><path d="M 167 137 L 226 137 L 226 201.339844 L 167 201.339844 Z M 167 137 "/></clipPath><clipPath id="d709d3be21"><path d="M 222 140 L 289 140 L 289 198 L 222 198 Z M 222 140 "/></clipPath><clipPath id="ff9dff7610"><path d="M 219.019531 201.480469 L 221.1875 134.015625 L 288.652344 136.1875 L 286.484375 203.652344 Z M 219.019531 201.480469 "/></clipPath><clipPath id="e7715872e0"><path d="M 219.019531 201.480469 L 221.1875 134.015625 L 288.652344 136.1875 L 286.484375 203.652344 Z M 219.019531 201.480469 "/></clipPath><clipPath id="7a40b235f4"><path d="M 223 225 L 290 225 L 290 283 L 223 283 Z M 223 225 "/></clipPath><clipPath id="4e528ec6ab"><path d="M 220.238281 286.222656 L 222.40625 218.753906 L 289.871094 220.925781 L 287.703125 288.390625 Z M 220.238281 286.222656 "/></clipPath><clipPath id="68873c8f3b"><path d="M 220.238281 286.222656 L 222.40625 218.753906 L 289.871094 220.925781 L 287.703125 288.390625 Z M 220.238281 286.222656 "/></clipPath><clipPath id="40c532d3cc"><path d="M 168.070312 304.535156 L 288.542969 304.535156 L 288.542969 433 L 168.070312 433 Z M 168.070312 304.535156 "/></clipPath><clipPath id="23c33ff99c"><path d="M 178.570312 304.535156 L 278.042969 304.535156 C 280.828125 304.535156 283.496094 305.644531 285.464844 307.613281 C 287.433594 309.582031 288.542969 312.25 288.542969 315.035156 L 288.542969 422.328125 C 288.542969 425.113281 287.433594 427.78125 285.464844 429.75 C 283.496094 431.71875 280.828125 432.828125 278.042969 432.828125 L 178.570312 432.828125 C 175.785156 432.828125 173.117188 431.71875 171.144531 429.75 C 169.175781 427.78125 168.070312 425.113281 168.070312 422.328125 L 168.070312 315.035156 C 168.070312 312.25 169.175781 309.582031 171.144531 307.613281 C 173.117188 305.644531 175.785156 304.535156 178.570312 304.535156 Z M 178.570312 304.535156 "/></clipPath><clipPath id="52499855a9"><path d="M 199.5625 304.535156 L 288.542969 304.535156 L 288.542969 433 L 199.5625 433 Z M 199.5625 304.535156 "/></clipPath><clipPath id="bf11d1d357"><path d="M 210.0625 304.535156 L 278.042969 304.535156 C 280.828125 304.535156 283.496094 305.644531 285.464844 307.613281 C 287.433594 309.582031 288.542969 312.25 288.542969 315.035156 L 288.542969 422.328125 C 288.542969 425.113281 287.433594 427.78125 285.464844 429.75 C 283.496094 431.71875 280.828125 432.828125 278.042969 432.828125 L 210.0625 432.828125 C 207.277344 432.828125 204.605469 431.71875 202.636719 429.75 C 200.667969 427.78125 199.5625 425.113281 199.5625 422.328125 L 199.5625 315.035156 C 199.5625 312.25 200.667969 309.582031 202.636719 307.613281 C 204.605469 305.644531 207.277344 304.535156 210.0625 304.535156 Z M 210.0625 304.535156 "/></clipPath><clipPath id="38c3ec235b"><path d="M 158.449219 298.070312 L 298.1875 298.070312 L 298.1875 335.804688 L 158.449219 335.804688 Z M 158.449219 298.070312 "/></clipPath><clipPath id="36adfada99"><path d="M 168.949219 298.070312 L 287.664062 298.070312 C 290.449219 298.070312 293.117188 299.175781 295.085938 301.144531 C 297.058594 303.113281 298.164062 305.785156 298.164062 308.570312 L 298.164062 325.304688 C 298.164062 328.089844 297.058594 330.761719 295.085938 332.730469 C 293.117188 334.699219 290.449219 335.804688 287.664062 335.804688 L 168.949219 335.804688 C 166.164062 335.804688 163.492188 334.699219 161.523438 332.730469 C 159.554688 330.761719 158.449219 328.089844 158.449219 325.304688 L 158.449219 308.570312 C 158.449219 305.785156 159.554688 303.113281 161.523438 301.144531 C 163.492188 299.175781 166.164062 298.070312 168.949219 298.070312 Z M 168.949219 298.070312 "/></clipPath><clipPath id="8194941ce9"><path d="M 158.449219 430.203125 L 298.175781 430.203125 L 298.175781 450 L 158.449219 450 Z M 158.449219 430.203125 "/></clipPath><clipPath id="db5634c099"><path d="M 168.347656 430.203125 L 288.265625 430.203125 C 290.890625 430.203125 293.40625 431.246094 295.265625 433.105469 C 297.121094 434.960938 298.164062 437.476562 298.164062 440.101562 C 298.164062 442.726562 297.121094 445.246094 295.265625 447.101562 C 293.40625 448.957031 290.890625 450 288.265625 450 L 168.347656 450 C 165.722656 450 163.203125 448.957031 161.347656 447.101562 C 159.492188 445.246094 158.449219 442.726562 158.449219 440.101562 C 158.449219 437.476562 159.492188 434.960938 161.347656 433.105469 C 163.203125 431.246094 165.722656 430.203125 168.347656 430.203125 Z M 168.347656 430.203125 "/></clipPath></defs><g id="d87a6b61b4"><g clip-rule="nonzero" clip-path="url(#1c68a61d57)"><path style=" stroke:none;fill-rule:nonzero;fill:#80b918;fill-opacity:1;" d="M 219.019531 189.355469 L 230.980469 189.355469 L 230.980469 322.964844 L 219.019531 322.964844 Z M 219.019531 189.355469 "/></g><g clip-rule="nonzero" clip-path="url(#f7499cbc04)"><path style=" stroke:none;fill-rule:nonzero;fill:#80b918;fill-opacity:1;" d="M 168.730469 137.289062 C 168.730469 137.289062 162.765625 148.605469 174.242188 174.679688 C 185.71875 200.75 224.238281 201.09375 224.238281 201.09375 C 224.238281 201.09375 230.207031 181.890625 215.523438 157.867188 C 200.84375 133.839844 168.730469 137.289062 168.730469 137.289062 Z M 168.730469 137.289062 "/></g><g clip-rule="nonzero" clip-path="url(#d709d3be21)"><g clip-rule="nonzero" clip-path="url(#ff9dff7610)"><g clip-rule="nonzero" clip-path="url(#e7715872e0)"><path style=" stroke:none;fill-rule:nonzero;fill:#80b918;fill-opacity:1;" d="M 222.65625 195.597656 C 222.65625 195.597656 233.777344 201.925781 260.207031 191.292969 C 286.632812 180.660156 288.214844 142.171875 288.214844 142.171875 C 288.214844 142.171875 269.214844 135.589844 244.730469 149.492188 C 220.242188 163.394531 222.65625 195.597656 222.65625 195.597656 Z M 222.65625 195.597656 "/></g></g></g><g clip-rule="nonzero" clip-path="url(#7a40b235f4)"><g clip-rule="nonzero" clip-path="url(#4e528ec6ab)"><g clip-rule="nonzero" clip-path="url(#68873c8f3b)"><path style=" stroke:none;fill-rule:nonzero;fill:#80b918;fill-opacity:1;" d="M 223.875 280.339844 C 223.875 280.339844 234.988281 286.664062 261.402344 276.039062 C 287.816406 265.414062 289.398438 226.941406 289.398438 226.941406 C 289.398438 226.941406 270.40625 220.363281 245.933594 234.257812 C 221.460938 248.152344 223.875 280.339844 223.875 280.339844 Z M 223.875 280.339844 "/></g></g></g><g clip-rule="nonzero" clip-path="url(#40c532d3cc)"><g clip-rule="nonzero" clip-path="url(#23c33ff99c)"><path style=" stroke:none;fill-rule:nonzero;fill:#92530a;fill-opacity:1;" d="M 168.070312 304.535156 L 288.542969 304.535156 L 288.542969 433.007812 L 168.070312 433.007812 Z M 168.070312 304.535156 "/></g></g><g clip-rule="nonzero" clip-path="url(#52499855a9)"><g clip-rule="nonzero" clip-path="url(#bf11d1d357)"><path style=" stroke:none;fill-rule:nonzero;fill:#a8610d;fill-opacity:1;" d="M 199.5625 304.535156 L 288.542969 304.535156 L 288.542969 432.792969 L 199.5625 432.792969 Z M 199.5625 304.535156 "/></g></g><g clip-rule="nonzero" clip-path="url(#38c3ec235b)"><g clip-rule="nonzero" clip-path="url(#36adfada99)"><path style=" stroke:none;fill-rule:nonzero;fill:#c87009;fill-opacity:1;" d="M 158.449219 298.070312 L 298.1875 298.070312 L 298.1875 335.804688 L 158.449219 335.804688 Z M 158.449219 298.070312 "/></g></g><g clip-rule="nonzero" clip-path="url(#8194941ce9)"><g clip-rule="nonzero" clip-path="url(#db5634c099)"><path style=" stroke:none;fill-rule:nonzero;fill:#a6a6a6;fill-opacity:1;" d="M 158.449219 430.203125 L 298.175781 430.203125 L 298.175781 450 L 158.449219 450 Z M 158.449219 430.203125 "/></g></g></g></svg>