<svg xmlns="http://www.w3.org/2000/svg" xmlns:xlink="http://www.w3.org/1999/xlink" width="600" zoomAndPan="magnify" viewBox="0 0 450 449.999984" height="600" preserveAspectRatio="xMidYMid meet" version="1.2"><defs><clipPath id="7d65be40f4"><path d="M 219.019531 247.5 L 230.980469 247.5 L 230.980469 322.976562 L 219.019531 322.976562 Z M 219.019531 247.5 "/></clipPath><clipPath id="215fd995c3"><path d="M 167 192 L 227 192 L 227 256.792969 L 167 256.792969 Z M 167 192 "/></clipPath><clipPath id="83752cbee6"><path d="M 218 196 L 285 196 L 285 254 L 218 254 Z M 218 196 "/></clipPath><clipPath id="580189ca12"><path d="M 214.941406 257.101562 L 217.109375 189.636719 L 284.574219 191.808594 L 282.40625 259.273438 Z M 214.941406 257.101562 "/></clipPath><clipPath id="d8eb7face9"><path d="M 214.941406 257.101562 L 217.109375 189.636719 L 284.574219 191.808594 L 282.40625 259.273438 Z M 214.941406 257.101562 "/></clipPath><clipPath id="939145351d"><path d="M 168.070312 304.535156 L 288.542969 304.535156 L 288.542969 433 L 168.070312 433 Z M 168.070312 304.535156 "/></clipPath><clipPath id="83b23933bd"><path d="M 178.570312 304.535156 L 278.042969 304.535156 C 280.828125 304.535156 283.496094 305.644531 285.464844 307.613281 C 287.433594 309.582031 288.542969 312.25 288.542969 315.035156 L 288.542969 422.328125 C 288.542969 425.113281 287.433594 427.78125 285.464844 429.75 C 283.496094 431.71875 280.828125 432.828125 278.042969 432.828125 L 178.570312 432.828125 C 175.785156 432.828125 173.117188 431.71875 171.144531 429.75 C 169.175781 427.78125 168.070312 425.113281 168.070312 422.328125 L 168.070312 315.035156 C 168.070312 312.25 169.175781 309.582031 171.144531 307.613281 C 173.117188 305.644531 175.785156 304.535156 178.570312 304.535156 Z M 178.570312 304.535156 "/></clipPath><clipPath id="08eedebc27"><path d="M 199.5625 304.535156 L 288.542969 304.535156 L 288.542969 433 L 199.5625 433 Z M 199.5625 304.535156 "/></clipPath><clipPath id="5d180fddad"><path d="M 210.0625 304.535156 L 278.042969 304.535156 C 280.828125 304.535156 283.496094 305.644531 285.464844 307.613281 C 287.433594 309.582031 288.542969 312.25 288.542969 315.035156 L 288.542969 422.328125 C 288.542969 425.113281 287.433594 427.78125 285.464844 429.75 C 283.496094 431.71875 280.828125 432.828125 278.042969 432.828125 L 210.0625 432.828125 C 207.277344 432.828125 204.605469 431.71875 202.636719 429.75 C 200.667969 427.78125 199.5625 425.113281 199.5625 422.328125 L 199.5625 315.035156 C 199.5625 312.25 200.667969 309.582031 202.636719 307.613281 C 204.605469 305.644531 207.277344 304.535156 210.0625 304.535156 Z M 210.0625 304.535156 "/></clipPath><clipPath id="2b67866553"><path d="M 158.449219 298.070312 L 298.1875 298.070312 L 298.1875 335.804688 L 158.449219 335.804688 Z M 158.449219 298.070312 "/></clipPath><clipPath id="0428f977f3"><path d="M 168.949219 298.070312 L 287.664062 298.070312 C 290.449219 298.070312 293.117188 299.175781 295.085938 301.144531 C 297.058594 303.113281 298.164062 305.785156 298.164062 308.570312 L 298.164062 325.304688 C 298.164062 328.089844 297.058594 330.761719 295.085938 332.730469 C 293.117188 334.699219 290.449219 335.804688 287.664062 335.804688 L 168.949219 335.804688 C 166.164062 335.804688 163.492188 334.699219 161.523438 332.730469 C 159.554688 330.761719 158.449219 328.089844 158.449219 325.304688 L 158.449219 308.570312 C 158.449219 305.785156 159.554688 303.113281 161.523438 301.144531 C 163.492188 299.175781 166.164062 298.070312 168.949219 298.070312 Z M 168.949219 298.070312 "/></clipPath><clipPath id="e02a57a3fe"><path d="M 158.449219 430.203125 L 298.175781 430.203125 L 298.175781 450 L 158.449219 450 Z M 158.449219 430.203125 "/></clipPath><clipPath id="3ecd1ab498"><path d="M 168.347656 430.203125 L 288.265625 430.203125 C 290.890625 430.203125 293.40625 431.246094 295.265625 433.105469 C 297.121094 434.960938 298.164062 437.476562 298.164062 440.101562 C 298.164062 442.726562 297.121094 445.246094 295.265625 447.101562 C 293.40625 448.957031 290.890625 450 288.265625 450 L 168.347656 450 C 165.722656 450 163.203125 448.957031 161.347656 447.101562 C 159.492188 445.246094 158.449219 442.726562 158.449219 440.101562 C 158.449219 437.476562 159.492188 434.960938 161.347656 433.105469 C 163.203125 431.246094 165.722656 430.203125 168.347656 430.203125 Z M 168.347656 430.203125 "/></clipPath></defs><g id="13f106cd48"><g clip-rule="nonzero" clip-path="url(#7d65be40f4)"><path style=" stroke:none;fill-rule:nonzero;fill:#80b918;fill-opacity:1;" d="M 219.019531 247.5 L 230.980469 247.5 L 230.980469 322.972656 L 219.019531 322.972656 Z M 219.019531 247.5 "/></g><g clip-rule="nonzero" clip-path="url(#215fd995c3)"><path style=" stroke:none;fill-rule:nonzero;fill:#80b918;fill-opacity:1;" d="M 169.097656 192.753906 C 169.097656 192.753906 163.109375 204.113281 174.628906 230.28125 C 186.148438 256.449219 224.808594 256.792969 224.808594 256.792969 C 224.808594 256.792969 230.796875 237.519531 216.0625 213.40625 C 201.328125 189.292969 169.097656 192.753906 169.097656 192.753906 Z M 169.097656 192.753906 "/></g><g clip-rule="nonzero" clip-path="url(#83752cbee6)"><g clip-rule="nonzero" clip-path="url(#580189ca12)"><g clip-rule="nonzero" clip-path="url(#d8eb7face9)"><path style=" stroke:none;fill-rule:nonzero;fill:#80b918;fill-opacity:1;" d="M 218.578125 251.214844 C 218.578125 251.214844 229.699219 257.542969 256.121094 246.914062 C 282.542969 236.28125 284.125 197.796875 284.125 197.796875 C 284.125 197.796875 265.128906 191.21875 240.644531 205.117188 C 216.164062 219.015625 218.578125 251.214844 218.578125 251.214844 Z M 218.578125 251.214844 "/></g></g></g><g clip-rule="nonzero" clip-path="url(#939145351d)"><g clip-rule="nonzero" clip-path="url(#83b23933bd)"><path style=" stroke:none;fill-rule:nonzero;fill:#92530a;fill-opacity:1;" d="M 168.070312 304.535156 L 288.542969 304.535156 L 288.542969 433.007812 L 168.070312 433.007812 Z M 168.070312 304.535156 "/></g></g><g clip-rule="nonzero" clip-path="url(#08eedebc27)"><g clip-rule="nonzero" clip-path="url(#5d180fddad)"><path style=" stroke:none;fill-rule:nonzero;fill:#a8610d;fill-opacity:1;" d="M 199.5625 304.535156 L 288.542969 304.535156 L 288.542969 432.792969 L 199.5625 432.792969 Z M 199.5625 304.535156 "/></g></g><g clip-rule="nonzero" clip-path="url(#2b67866553)"><g clip-rule="nonzero" clip-path="url(#0428f977f3)"><path style=" stroke:none;fill-rule:nonzero;fill:#c87009;fill-opacity:1;" d="M 158.449219 298.070312 L 298.1875 298.070312 L 298.1875 335.804688 L 158.449219 335.804688 Z M 158.449219 298.070312 "/></g></g><g clip-rule="nonzero" clip-path="url(#e02a57a3fe)"><g clip-rule="nonzero" clip-path="url(#3ecd1ab498)"><path style=" stroke:none;fill-rule:nonzero;fill:#a6a6a6;fill-opacity:1;" d="M 158.449219 430.203125 L 298.175781 430.203125 L 298.175781 450 L 158.449219 450 Z M 158.449219 430.203125 "/></g></g></g></svg>