<svg xmlns="http://www.w3.org/2000/svg" xmlns:xlink="http://www.w3.org/1999/xlink" width="600" zoomAndPan="magnify" viewBox="0 0 450 449.999984" height="600" preserveAspectRatio="xMidYMid meet" version="1.2"><defs><clipPath id="ccb6ac0673"><path d="M 219.019531 134.703125 L 230.980469 134.703125 L 230.980469 322.976562 L 219.019531 322.976562 Z M 219.019531 134.703125 "/></clipPath><clipPath id="bffc78e586"><path d="M 167 83 L 227 83 L 227 147.988281 L 167 147.988281 Z M 167 83 "/></clipPath><clipPath id="8fc403c41f"><path d="M 223 84 L 290 84 L 290 142 L 223 142 Z M 223 84 "/></clipPath><clipPath id="e80d707547"><path d="M 220.011719 145.671875 L 222.179688 78.207031 L 289.644531 80.378906 L 287.476562 147.84375 Z M 220.011719 145.671875 "/></clipPath><clipPath id="529c0cae98"><path d="M 220.011719 145.671875 L 222.179688 78.207031 L 289.644531 80.378906 L 287.476562 147.84375 Z M 220.011719 145.671875 "/></clipPath><clipPath id="fc000fb18c"><path d="M 223 169 L 290 169 L 290 227 L 223 227 Z M 223 169 "/></clipPath><clipPath id="8e6fb7deb8"><path d="M 220.238281 230.378906 L 222.40625 162.914062 L 289.871094 165.082031 L 287.703125 232.546875 Z M 220.238281 230.378906 "/></clipPath><clipPath id="f8e757b3a8"><path d="M 220.238281 230.378906 L 222.40625 162.914062 L 289.871094 165.082031 L 287.703125 232.546875 Z M 220.238281 230.378906 "/></clipPath><clipPath id="378471ca0d"><path d="M 162 188.308594 L 221 188.308594 L 221 253 L 162 253 Z M 162 188.308594 "/></clipPath><clipPath id="9b37a81ece"><path d="M 168.070312 304.535156 L 288.542969 304.535156 L 288.542969 433 L 168.070312 433 Z M 168.070312 304.535156 "/></clipPath><clipPath id="61a2f2047b"><path d="M 178.570312 304.535156 L 278.042969 304.535156 C 280.828125 304.535156 283.496094 305.644531 285.464844 307.613281 C 287.433594 309.582031 288.542969 312.25 288.542969 315.035156 L 288.542969 422.328125 C 288.542969 425.113281 287.433594 427.78125 285.464844 429.75 C 283.496094 431.71875 280.828125 432.828125 278.042969 432.828125 L 178.570312 432.828125 C 175.785156 432.828125 173.117188 431.71875 171.144531 429.75 C 169.175781 427.78125 168.070312 425.113281 168.070312 422.328125 L 168.070312 315.035156 C 168.070312 312.25 169.175781 309.582031 171.144531 307.613281 C 173.117188 305.644531 175.785156 304.535156 178.570312 304.535156 Z M 178.570312 304.535156 "/></clipPath><clipPath id="f889beab0e"><path d="M 199.5625 304.535156 L 288.542969 304.535156 L 288.542969 433 L 199.5625 433 Z M 199.5625 304.535156 "/></clipPath><clipPath id="df9c13326f"><path d="M 210.0625 304.535156 L 278.042969 304.535156 C 280.828125 304.535156 283.496094 305.644531 285.464844 307.613281 C 287.433594 309.582031 288.542969 312.25 288.542969 315.035156 L 288.542969 422.328125 C 288.542969 425.113281 287.433594 427.78125 285.464844 429.75 C 283.496094 431.71875 280.828125 432.828125 278.042969 432.828125 L 210.0625 432.828125 C 207.277344 432.828125 204.605469 431.71875 202.636719 429.75 C 200.667969 427.78125 199.5625 425.113281 199.5625 422.328125 L 199.5625 315.035156 C 199.5625 312.25 200.667969 309.582031 202.636719 307.613281 C 204.605469 305.644531 207.277344 304.535156 210.0625 304.535156 Z M 210.0625 304.535156 "/></clipPath><clipPath id="d02316e4eb"><path d="M 158.449219 298.070312 L 298.1875 298.070312 L 298.1875 335.804688 L 158.449219 335.804688 Z M 158.449219 298.070312 "/></clipPath><clipPath id="6d93cc3234"><path d="M 168.949219 298.070312 L 287.664062 298.070312 C 290.449219 298.070312 293.117188 299.175781 295.085938 301.144531 C 297.058594 303.113281 298.164062 305.785156 298.164062 308.570312 L 298.164062 325.304688 C 298.164062 328.089844 297.058594 330.761719 295.085938 332.730469 C 293.117188 334.699219 290.449219 335.804688 287.664062 335.804688 L 168.949219 335.804688 C 166.164062 335.804688 163.492188 334.699219 161.523438 332.730469 C 159.554688 330.761719 158.449219 328.089844 158.449219 325.304688 L 158.449219 308.570312 C 158.449219 305.785156 159.554688 303.113281 161.523438 301.144531 C 163.492188 299.175781 166.164062 298.070312 168.949219 298.070312 Z M 168.949219 298.070312 "/></clipPath><clipPath id="c9b3825061"><path d="M 158.449219 430.203125 L 298.175781 430.203125 L 298.175781 450 L 158.449219 450 Z M 158.449219 430.203125 "/></clipPath><clipPath id="9723cb5f14"><path d="M 168.347656 430.203125 L 288.265625 430.203125 C 290.890625 430.203125 293.40625 431.246094 295.265625 433.105469 C 297.121094 434.960938 298.164062 437.476562 298.164062 440.101562 C 298.164062 442.726562 297.121094 445.246094 295.265625 447.101562 C 293.40625 448.957031 290.890625 450 288.265625 450 L 168.347656 450 C 165.722656 450 163.203125 448.957031 161.347656 447.101562 C 159.492188 445.246094 158.449219 442.726562 158.449219 440.101562 C 158.449219 437.476562 159.492188 434.960938 161.347656 433.105469 C 163.203125 431.246094 165.722656 430.203125 168.347656 430.203125 Z M 168.347656 430.203125 "/></clipPath><clipPath id="7c8e16c670"><path d="M 221 255 L 255 255 L 255 285 L 221 285 Z M 221 255 "/></clipPath><clipPath id="c82d284a93"><path d="M 220.199219 286.046875 L 221.285156 252.316406 L 255.015625 253.402344 L 253.933594 287.132812 Z M 220.199219 286.046875 "/></clipPath><clipPath id="914b5d7d31"><path d="M 220.199219 286.046875 L 221.285156 252.316406 L 255.015625 253.402344 L 253.933594 287.132812 Z M 220.199219 286.046875 "/></clipPath></defs><g id="a8eabe050c"><g clip-rule="nonzero" clip-path="url(#ccb6ac0673)"><path style=" stroke:none;fill-rule:nonzero;fill:#80b918;fill-opacity:1;" d="M 219.019531 134.703125 L 230.980469 134.703125 L 230.980469 322.988281 L 219.019531 322.988281 Z M 219.019531 134.703125 "/></g><g clip-rule="nonzero" clip-path="url(#bffc78e586)"><path style=" stroke:none;fill-rule:nonzero;fill:#80b918;fill-opacity:1;" d="M 169.371094 83.9375 C 169.371094 83.9375 163.402344 95.253906 174.878906 121.328125 C 186.355469 147.398438 224.875 147.742188 224.875 147.742188 C 224.875 147.742188 230.84375 128.539062 216.160156 104.511719 C 201.480469 80.488281 169.371094 83.9375 169.371094 83.9375 Z M 169.371094 83.9375 "/></g><g clip-rule="nonzero" clip-path="url(#8fc403c41f)"><g clip-rule="nonzero" clip-path="url(#e80d707547)"><g clip-rule="nonzero" clip-path="url(#529c0cae98)"><path style=" stroke:none;fill-rule:nonzero;fill:#80b918;fill-opacity:1;" d="M 223.652344 139.789062 C 223.652344 139.789062 234.773438 146.117188 261.199219 135.484375 C 287.625 124.851562 289.207031 86.363281 289.207031 86.363281 C 289.207031 86.363281 270.207031 79.78125 245.722656 93.683594 C 221.234375 107.585938 223.652344 139.789062 223.652344 139.789062 Z M 223.652344 139.789062 "/></g></g></g><g clip-rule="nonzero" clip-path="url(#fc000fb18c)"><g clip-rule="nonzero" clip-path="url(#8e6fb7deb8)"><g clip-rule="nonzero" clip-path="url(#f8e757b3a8)"><path style=" stroke:none;fill-rule:nonzero;fill:#80b918;fill-opacity:1;" d="M 223.875 224.496094 C 223.875 224.496094 234.988281 230.824219 261.402344 220.195312 C 287.816406 209.570312 289.398438 171.101562 289.398438 171.101562 C 289.398438 171.101562 270.40625 164.523438 245.933594 178.417969 C 221.460938 192.308594 223.875 224.496094 223.875 224.496094 Z M 223.875 224.496094 "/></g></g></g><g clip-rule="nonzero" clip-path="url(#378471ca0d)"><path style=" stroke:none;fill-rule:nonzero;fill:#80b918;fill-opacity:1;" d="M 218.980469 252.347656 C 218.980469 252.347656 224.96875 240.988281 213.449219 214.820312 C 201.929688 188.652344 163.269531 188.308594 163.269531 188.308594 C 163.269531 188.308594 157.28125 207.582031 172.015625 231.695312 C 186.75 255.808594 218.980469 252.347656 218.980469 252.347656 Z M 218.980469 252.347656 "/></g><g clip-rule="nonzero" clip-path="url(#9b37a81ece)"><g clip-rule="nonzero" clip-path="url(#61a2f2047b)"><path style=" stroke:none;fill-rule:nonzero;fill:#92530a;fill-opacity:1;" d="M 168.070312 304.535156 L 288.542969 304.535156 L 288.542969 433.007812 L 168.070312 433.007812 Z M 168.070312 304.535156 "/></g></g><g clip-rule="nonzero" clip-path="url(#f889beab0e)"><g clip-rule="nonzero" clip-path="url(#df9c13326f)"><path style=" stroke:none;fill-rule:nonzero;fill:#a8610d;fill-opacity:1;" d="M 199.5625 304.535156 L 288.542969 304.535156 L 288.542969 432.792969 L 199.5625 432.792969 Z M 199.5625 304.535156 "/></g></g><g clip-rule="nonzero" clip-path="url(#d02316e4eb)"><g clip-rule="nonzero" clip-path="url(#6d93cc3234)"><path style=" stroke:none;fill-rule:nonzero;fill:#c87009;fill-opacity:1;" d="M 158.449219 298.070312 L 298.1875 298.070312 L 298.1875 335.804688 L 158.449219 335.804688 Z M 158.449219 298.070312 "/></g></g><g clip-rule="nonzero" clip-path="url(#c9b3825061)"><g clip-rule="nonzero" clip-path="url(#9723cb5f14)"><path style=" stroke:none;fill-rule:nonzero;fill:#a6a6a6;fill-opacity:1;" d="M 158.449219 430.203125 L 298.175781 430.203125 L 298.175781 450 L 158.449219 450 Z M 158.449219 430.203125 "/></g></g><g clip-rule="nonzero" clip-path="url(#7c8e16c670)"><g clip-rule="nonzero" clip-path="url(#c82d284a93)"><g clip-rule="nonzero" clip-path="url(#914b5d7d31)"><path style=" stroke:none;fill-rule:nonzero;fill:#80b918;fill-opacity:1;" d="M 222.019531 283.109375 C 222.019531 283.109375 227.578125 286.273438 240.789062 280.957031 C 254 275.644531 254.792969 256.402344 254.792969 256.402344 C 254.792969 256.402344 245.292969 253.113281 233.050781 260.0625 C 220.8125 267.011719 222.019531 283.109375 222.019531 283.109375 Z M 222.019531 283.109375 "/></g></g></g></g></svg>