<svg xmlns="http://www.w3.org/2000/svg" xmlns:xlink="http://www.w3.org/1999/xlink" width="500" zoomAndPan="magnify" viewBox="0 0 375 374.999991" height="500" preserveAspectRatio="xMidYMid meet" version="1.2"><defs/><g id="eb027223f0"><g style="fill:#4b4b4b;fill-opacity:1;"><g transform="translate(123.341007, 220.18355)"><path style="stroke:none" d="M 21.90625 -47.59375 C 24.363281 -50.476562 26.941406 -52.566406 29.640625 -53.859375 C 32.347656 -55.160156 35.28125 -55.8125 38.4375 -55.8125 C 41.457031 -55.8125 44.144531 -55.351562 46.5 -54.4375 C 48.851562 -53.53125 50.800781 -52.335938 52.34375 -50.859375 C 55.5 -47.773438 57.078125 -42.09375 57.078125 -33.8125 L 57.078125 0 L 42.65625 0 L 42.65625 -30.75 C 42.65625 -34.050781 42.441406 -36.679688 42.015625 -38.640625 C 41.597656 -40.609375 40.753906 -42.117188 39.484375 -43.171875 C 38.222656 -44.234375 36.296875 -44.765625 33.703125 -44.765625 C 29.140625 -44.765625 26.03125 -43.285156 24.375 -40.328125 C 22.726562 -37.378906 21.90625 -33.453125 21.90625 -28.546875 L 21.90625 0 L 7.484375 0 L 7.484375 -75.40625 L 21.90625 -75.40625 Z M 21.90625 -47.59375 "/></g></g><g style="fill:#4b4b4b;fill-opacity:1;"><g transform="translate(187.68915, 220.18355)"><path style="stroke:none" d="M 28.4375 -55.8125 C 37.144531 -55.8125 43.640625 -52.984375 47.921875 -47.328125 C 52.203125 -41.679688 54.34375 -33.628906 54.34375 -23.171875 L 18.109375 -23.171875 C 18.253906 -19.515625 19.328125 -16.367188 21.328125 -13.734375 C 23.328125 -11.109375 26.222656 -9.796875 30.015625 -9.796875 C 32.398438 -9.796875 34.347656 -10.410156 35.859375 -11.640625 C 37.367188 -12.867188 38.472656 -14.78125 39.171875 -17.375 L 53.609375 -14.953125 C 51.773438 -9.617188 48.820312 -5.582031 44.75 -2.84375 C 40.6875 -0.101562 35.703125 1.265625 29.796875 1.265625 C 21.023438 1.265625 14.394531 -1.367188 9.90625 -6.640625 C 7.789062 -9.097656 6.171875 -12.1875 5.046875 -15.90625 C 3.929688 -19.625 3.375 -23.304688 3.375 -26.953125 C 3.375 -31.941406 4.265625 -36.628906 6.046875 -41.015625 C 7.835938 -45.398438 10.613281 -48.960938 14.375 -51.703125 C 18.132812 -54.441406 22.820312 -55.8125 28.4375 -55.8125 Z M 18.4375 -32.015625 L 40.015625 -32.015625 C 39.941406 -36.441406 38.832031 -39.671875 36.6875 -41.703125 C 34.550781 -43.742188 32.046875 -44.765625 29.171875 -44.765625 C 25.796875 -44.765625 23.160156 -43.550781 21.265625 -41.125 C 19.378906 -38.695312 18.4375 -35.660156 18.4375 -32.015625 Z M 18.4375 -32.015625 "/></g></g><g style="fill:#4b4b4b;fill-opacity:1;"><g transform="translate(246.244905, 220.18355)"><path style="stroke:none" d="M 22.015625 0 L 7.578125 0 L 7.578125 -75.40625 L 22.015625 -75.40625 Z M 22.015625 0 "/></g></g><g style="fill:#4b4b4b;fill-opacity:1;"><g transform="translate(275.522781, 220.18355)"><path style="stroke:none" d="M 12.328125 -71.5 C 13.722656 -73.257812 15.546875 -74.5625 17.796875 -75.40625 C 20.046875 -76.25 22.820312 -76.671875 26.125 -76.671875 C 30.1875 -76.671875 34.1875 -76.070312 38.125 -74.875 L 36.234375 -64.765625 C 33.773438 -65.328125 31.5625 -65.609375 29.59375 -65.609375 C 27.34375 -65.609375 25.796875 -65.0625 24.953125 -63.96875 C 24.117188 -62.882812 23.703125 -61.289062 23.703125 -59.1875 L 23.703125 -54.546875 L 34.546875 -54.546875 L 34.546875 -43.078125 L 23.703125 -43.078125 L 23.703125 0 L 9.265625 0 L 9.265625 -43.078125 L 1.265625 -43.078125 L 1.265625 -54.546875 L 9.265625 -54.546875 L 9.265625 -59.921875 C 9.265625 -65.117188 10.285156 -68.976562 12.328125 -71.5 Z M 12.328125 -71.5 "/></g></g><g style="fill:#4b4b4b;fill-opacity:1;"><g transform="translate(310.593048, 220.18355)"><path style="stroke:none" d="M 29.0625 -15.796875 L 29.28125 -15.796875 L 41.921875 -54.546875 L 56.875 -54.546875 L 37.59375 -2 L 36.328125 1.6875 C 34.503906 6.8125 32.875 10.6875 31.4375 13.3125 C 30 15.945312 27.890625 18.070312 25.109375 19.6875 C 22.335938 21.300781 18.53125 22.109375 13.6875 22.109375 C 10.8125 22.109375 8.070312 21.828125 5.46875 21.265625 L 4.21875 10 C 6.675781 10.425781 8.675781 10.640625 10.21875 10.640625 C 13.238281 10.640625 15.570312 9.847656 17.21875 8.265625 C 18.863281 6.679688 20.285156 3.960938 21.484375 0.109375 L 0.734375 -54.546875 L 16.109375 -54.546875 Z M 29.0625 -15.796875 "/></g></g><path style=" stroke:none;fill-rule:nonzero;fill:#4b4b4b;fill-opacity:1;" d="M 37.335938 227.632812 C 38.679688 227.792969 40.050781 227.921875 41.238281 228.003906 C 61.757812 229.292969 91.640625 233.566406 106.597656 222.304688 C 115.828125 215.316406 113.664062 187.675781 114.113281 176.492188 C 114.640625 163.566406 117.492188 139.011719 110.367188 132.628906 C 99.316406 122.871094 88.292969 138.484375 79.957031 146.976562 C 70.804688 156.289062 62.3125 165.914062 52.527344 174.617188 C 44.351562 181.898438 35.410156 188.964844 27.8125 197.011719 C 22.488281 202.65625 12.492188 213.839844 17.210938 222.332031 C 20.21875 227.394531 31.320312 226.816406 37.335938 227.632812 Z M 37.335938 227.632812 "/></g></svg>