<svg xmlns="http://www.w3.org/2000/svg" xmlns:xlink="http://www.w3.org/1999/xlink" width="600" zoomAndPan="magnify" viewBox="0 0 450 449.999984" height="600" preserveAspectRatio="xMidYMid meet" version="1.2"><defs><clipPath id="1a4c54cc88"><path d="M 168.070312 304.722656 L 288.542969 304.722656 L 288.542969 433.195312 L 168.070312 433.195312 Z M 168.070312 304.722656 "/></clipPath><clipPath id="a92695b7b5"><path d="M 178.570312 304.722656 L 278.042969 304.722656 C 280.828125 304.722656 283.496094 305.828125 285.464844 307.800781 C 287.433594 309.769531 288.542969 312.4375 288.542969 315.222656 L 288.542969 422.511719 C 288.542969 425.296875 287.433594 427.96875 285.464844 429.9375 C 283.496094 431.90625 280.828125 433.011719 278.042969 433.011719 L 178.570312 433.011719 C 175.785156 433.011719 173.117188 431.90625 171.144531 429.9375 C 169.175781 427.96875 168.070312 425.296875 168.070312 422.511719 L 168.070312 315.222656 C 168.070312 312.4375 169.175781 309.769531 171.144531 307.800781 C 173.117188 305.828125 175.785156 304.722656 178.570312 304.722656 Z M 178.570312 304.722656 "/></clipPath><clipPath id="49ae4cbb80"><path d="M 0.0703125 0.722656 L 120.542969 0.722656 L 120.542969 129.195312 L 0.0703125 129.195312 Z M 0.0703125 0.722656 "/></clipPath><clipPath id="0e019aa01d"><path d="M 10.570312 0.722656 L 110.042969 0.722656 C 112.828125 0.722656 115.496094 1.828125 117.464844 3.800781 C 119.433594 5.769531 120.542969 8.4375 120.542969 11.222656 L 120.542969 118.511719 C 120.542969 121.296875 119.433594 123.96875 117.464844 125.9375 C 115.496094 127.90625 112.828125 129.011719 110.042969 129.011719 L 10.570312 129.011719 C 7.785156 129.011719 5.117188 127.90625 3.144531 125.9375 C 1.175781 123.96875 0.0703125 121.296875 0.0703125 118.511719 L 0.0703125 11.222656 C 0.0703125 8.4375 1.175781 5.769531 3.144531 3.800781 C 5.117188 1.828125 7.785156 0.722656 10.570312 0.722656 Z M 10.570312 0.722656 "/></clipPath><clipPath id="f19664ec60"><rect x="0" width="121" y="0" height="130"/></clipPath><clipPath id="25dbd100b9"><path d="M 199.5625 304.722656 L 288.542969 304.722656 L 288.542969 433.328125 L 199.5625 433.328125 Z M 199.5625 304.722656 "/></clipPath><clipPath id="9b27b1192d"><path d="M 210.0625 304.722656 L 278.042969 304.722656 C 280.828125 304.722656 283.496094 305.828125 285.464844 307.800781 C 287.433594 309.769531 288.542969 312.4375 288.542969 315.222656 L 288.542969 422.511719 C 288.542969 425.296875 287.433594 427.96875 285.464844 429.9375 C 283.496094 431.90625 280.828125 433.011719 278.042969 433.011719 L 210.0625 433.011719 C 207.277344 433.011719 204.605469 431.90625 202.636719 429.9375 C 200.667969 427.96875 199.5625 425.296875 199.5625 422.511719 L 199.5625 315.222656 C 199.5625 312.4375 200.667969 309.769531 202.636719 307.800781 C 204.605469 305.828125 207.277344 304.722656 210.0625 304.722656 Z M 210.0625 304.722656 "/></clipPath><clipPath id="f421b643ff"><path d="M 0.5625 0.722656 L 89.542969 0.722656 L 89.542969 129 L 0.5625 129 Z M 0.5625 0.722656 "/></clipPath><clipPath id="060484745f"><path d="M 11.0625 0.722656 L 79.042969 0.722656 C 81.828125 0.722656 84.496094 1.828125 86.464844 3.800781 C 88.433594 5.769531 89.542969 8.4375 89.542969 11.222656 L 89.542969 118.511719 C 89.542969 121.296875 88.433594 123.96875 86.464844 125.9375 C 84.496094 127.90625 81.828125 129.011719 79.042969 129.011719 L 11.0625 129.011719 C 8.277344 129.011719 5.605469 127.90625 3.636719 125.9375 C 1.667969 123.96875 0.5625 121.296875 0.5625 118.511719 L 0.5625 11.222656 C 0.5625 8.4375 1.667969 5.769531 3.636719 3.800781 C 5.605469 1.828125 8.277344 0.722656 11.0625 0.722656 Z M 11.0625 0.722656 "/></clipPath><clipPath id="156da2486a"><rect x="0" width="90" y="0" height="130"/></clipPath><clipPath id="ce3a3b6c21"><path d="M 158.449219 298.253906 L 298.1875 298.253906 L 298.1875 335.992188 L 158.449219 335.992188 Z M 158.449219 298.253906 "/></clipPath><clipPath id="eb0c623873"><path d="M 168.949219 298.253906 L 287.664062 298.253906 C 290.449219 298.253906 293.117188 299.363281 295.085938 301.332031 C 297.058594 303.300781 298.164062 305.972656 298.164062 308.753906 L 298.164062 325.492188 C 298.164062 328.277344 297.058594 330.945312 295.085938 332.914062 C 293.117188 334.886719 290.449219 335.992188 287.664062 335.992188 L 168.949219 335.992188 C 166.164062 335.992188 163.492188 334.886719 161.523438 332.914062 C 159.554688 330.945312 158.449219 328.277344 158.449219 325.492188 L 158.449219 308.753906 C 158.449219 305.972656 159.554688 303.300781 161.523438 301.332031 C 163.492188 299.363281 166.164062 298.253906 168.949219 298.253906 Z M 168.949219 298.253906 "/></clipPath><clipPath id="9d4bf6d568"><path d="M 0.449219 0.253906 L 140.1875 0.253906 L 140.1875 37.992188 L 0.449219 37.992188 Z M 0.449219 0.253906 "/></clipPath><clipPath id="1aca13beab"><path d="M 10.949219 0.253906 L 129.664062 0.253906 C 132.449219 0.253906 135.117188 1.363281 137.085938 3.332031 C 139.058594 5.300781 140.164062 7.972656 140.164062 10.753906 L 140.164062 27.492188 C 140.164062 30.277344 139.058594 32.945312 137.085938 34.914062 C 135.117188 36.886719 132.449219 37.992188 129.664062 37.992188 L 10.949219 37.992188 C 8.164062 37.992188 5.492188 36.886719 3.523438 34.914062 C 1.554688 32.945312 0.449219 30.277344 0.449219 27.492188 L 0.449219 10.753906 C 0.449219 7.972656 1.554688 5.300781 3.523438 3.332031 C 5.492188 1.363281 8.164062 0.253906 10.949219 0.253906 Z M 10.949219 0.253906 "/></clipPath><clipPath id="80d811eb66"><rect x="0" width="141" y="0" height="38"/></clipPath><clipPath id="a43e731597"><path d="M 168.070312 335.992188 L 288.542969 335.992188 L 288.542969 354.859375 L 168.070312 354.859375 Z M 168.070312 335.992188 "/></clipPath><clipPath id="177c4633f1"><path d="M 0.0703125 0.992188 L 120.542969 0.992188 L 120.542969 19.859375 L 0.0703125 19.859375 Z M 0.0703125 0.992188 "/></clipPath><clipPath id="b6232e0026"><rect x="0" width="121" y="0" height="20"/></clipPath><clipPath id="f4767ebc58"><path d="M 168.070312 354.859375 L 288.542969 354.859375 L 288.542969 373.726562 L 168.070312 373.726562 Z M 168.070312 354.859375 "/></clipPath><clipPath id="f3eaf0cebf"><path d="M 0.0703125 0.859375 L 120.542969 0.859375 L 120.542969 19.726562 L 0.0703125 19.726562 Z M 0.0703125 0.859375 "/></clipPath><clipPath id="353c434325"><rect x="0" width="121" y="0" height="20"/></clipPath><clipPath id="7ed387e5d1"><path d="M 168.070312 373.726562 L 288.542969 373.726562 L 288.542969 392.59375 L 168.070312 392.59375 Z M 168.070312 373.726562 "/></clipPath><clipPath id="2487139387"><path d="M 0.0703125 0.726562 L 120.542969 0.726562 L 120.542969 19.59375 L 0.0703125 19.59375 Z M 0.0703125 0.726562 "/></clipPath><clipPath id="bc1ae0d697"><rect x="0" width="121" y="0" height="20"/></clipPath><clipPath id="dbc5f3d237"><path d="M 168.070312 392.59375 L 288.542969 392.59375 L 288.542969 411.460938 L 168.070312 411.460938 Z M 168.070312 392.59375 "/></clipPath><clipPath id="48471da83e"><path d="M 0.0703125 0.59375 L 120.542969 0.59375 L 120.542969 19.460938 L 0.0703125 19.460938 Z M 0.0703125 0.59375 "/></clipPath><clipPath id="b3f8ff951d"><rect x="0" width="121" y="0" height="20"/></clipPath><clipPath id="ed4ba45e6d"><path d="M 199.5625 392.59375 L 288.542969 392.59375 L 288.542969 411.460938 L 199.5625 411.460938 Z M 199.5625 392.59375 "/></clipPath><clipPath id="064f912bc7"><path d="M 0.5625 0.59375 L 89.542969 0.59375 L 89.542969 19.460938 L 0.5625 19.460938 Z M 0.5625 0.59375 "/></clipPath><clipPath id="07fb955207"><rect x="0" width="90" y="0" height="20"/></clipPath><clipPath id="728b680eca"><path d="M 199.5625 373.726562 L 288.542969 373.726562 L 288.542969 392.59375 L 199.5625 392.59375 Z M 199.5625 373.726562 "/></clipPath><clipPath id="9050f47d65"><path d="M 0.5625 0.726562 L 89.542969 0.726562 L 89.542969 19.59375 L 0.5625 19.59375 Z M 0.5625 0.726562 "/></clipPath><clipPath id="fc45eab06a"><rect x="0" width="90" y="0" height="20"/></clipPath><clipPath id="2fbdb18c77"><path d="M 199.5625 354.859375 L 288.542969 354.859375 L 288.542969 373.726562 L 199.5625 373.726562 Z M 199.5625 354.859375 "/></clipPath><clipPath id="4eb34a7682"><path d="M 0.5625 0.859375 L 89.542969 0.859375 L 89.542969 19.726562 L 0.5625 19.726562 Z M 0.5625 0.859375 "/></clipPath><clipPath id="f4c9459611"><rect x="0" width="90" y="0" height="20"/></clipPath><clipPath id="33bcb69d1d"><path d="M 199.5625 335.992188 L 288.542969 335.992188 L 288.542969 354.859375 L 199.5625 354.859375 Z M 199.5625 335.992188 "/></clipPath><clipPath id="e9eee19553"><path d="M 0.5625 0.992188 L 89.542969 0.992188 L 89.542969 19.859375 L 0.5625 19.859375 Z M 0.5625 0.992188 "/></clipPath><clipPath id="68d4c506bf"><rect x="0" width="90" y="0" height="20"/></clipPath></defs><g id="dad3d28e56"><g clip-rule="nonzero" clip-path="url(#1a4c54cc88)"><g clip-rule="nonzero" clip-path="url(#a92695b7b5)"><g transform="matrix(1,0,0,1,168,304)"><g clip-path="url(#f19664ec60)"><g clip-rule="nonzero" clip-path="url(#49ae4cbb80)"><g clip-rule="nonzero" clip-path="url(#0e019aa01d)"><path style=" stroke:none;fill-rule:nonzero;fill:#5e17eb;fill-opacity:1;" d="M 0.0703125 0.722656 L 120.542969 0.722656 L 120.542969 129.195312 L 0.0703125 129.195312 Z M 0.0703125 0.722656 "/></g></g></g></g></g></g><g clip-rule="nonzero" clip-path="url(#25dbd100b9)"><g clip-rule="nonzero" clip-path="url(#9b27b1192d)"><g transform="matrix(1,0,0,1,199,304)"><g clip-path="url(#156da2486a)"><g clip-rule="nonzero" clip-path="url(#f421b643ff)"><g clip-rule="nonzero" clip-path="url(#060484745f)"><path style=" stroke:none;fill-rule:nonzero;fill:#7536f1;fill-opacity:1;" d="M 0.5625 0.722656 L 89.542969 0.722656 L 89.542969 128.980469 L 0.5625 128.980469 Z M 0.5625 0.722656 "/></g></g></g></g></g></g><g clip-rule="nonzero" clip-path="url(#ce3a3b6c21)"><g clip-rule="nonzero" clip-path="url(#eb0c623873)"><g transform="matrix(1,0,0,1,158,298)"><g clip-path="url(#80d811eb66)"><g clip-rule="nonzero" clip-path="url(#9d4bf6d568)"><g clip-rule="nonzero" clip-path="url(#1aca13beab)"><path style=" stroke:none;fill-rule:nonzero;fill:#e85621;fill-opacity:1;" d="M 0.449219 0.253906 L 140.1875 0.253906 L 140.1875 37.992188 L 0.449219 37.992188 Z M 0.449219 0.253906 "/></g></g></g></g></g></g><g clip-rule="nonzero" clip-path="url(#a43e731597)"><g transform="matrix(1,0,0,1,168,335)"><g clip-path="url(#b6232e0026)"><g clip-rule="nonzero" clip-path="url(#177c4633f1)"><path style=" stroke:none;fill-rule:nonzero;fill:#ff914d;fill-opacity:1;" d="M 0.0703125 0.992188 L 120.574219 0.992188 L 120.574219 19.859375 L 0.0703125 19.859375 Z M 0.0703125 0.992188 "/></g></g></g></g><g clip-rule="nonzero" clip-path="url(#f4767ebc58)"><g transform="matrix(1,0,0,1,168,354)"><g clip-path="url(#353c434325)"><g clip-rule="nonzero" clip-path="url(#f3eaf0cebf)"><path style=" stroke:none;fill-rule:nonzero;fill:#e8a92b;fill-opacity:1;" d="M 0.0703125 0.859375 L 120.574219 0.859375 L 120.574219 19.726562 L 0.0703125 19.726562 Z M 0.0703125 0.859375 "/></g></g></g></g><g clip-rule="nonzero" clip-path="url(#7ed387e5d1)"><g transform="matrix(1,0,0,1,168,373)"><g clip-path="url(#bc1ae0d697)"><g clip-rule="nonzero" clip-path="url(#2487139387)"><path style=" stroke:none;fill-rule:nonzero;fill:#749d2a;fill-opacity:1;" d="M 0.0703125 0.726562 L 120.574219 0.726562 L 120.574219 19.59375 L 0.0703125 19.59375 Z M 0.0703125 0.726562 "/></g></g></g></g><g clip-rule="nonzero" clip-path="url(#dbc5f3d237)"><g transform="matrix(1,0,0,1,168,392)"><g clip-path="url(#b3f8ff951d)"><g clip-rule="nonzero" clip-path="url(#48471da83e)"><path style=" stroke:none;fill-rule:nonzero;fill:#309aff;fill-opacity:1;" d="M 0.0703125 0.59375 L 120.574219 0.59375 L 120.574219 19.460938 L 0.0703125 19.460938 Z M 0.0703125 0.59375 "/></g></g></g></g><g clip-rule="nonzero" clip-path="url(#ed4ba45e6d)"><g transform="matrix(1,0,0,1,199,392)"><g clip-path="url(#07fb955207)"><g clip-rule="nonzero" clip-path="url(#064f912bc7)"><path style=" stroke:none;fill-rule:nonzero;fill:#52abff;fill-opacity:1;" d="M 0.5625 0.59375 L 89.519531 0.59375 L 89.519531 19.460938 L 0.5625 19.460938 Z M 0.5625 0.59375 "/></g></g></g></g><g clip-rule="nonzero" clip-path="url(#728b680eca)"><g transform="matrix(1,0,0,1,199,373)"><g clip-path="url(#fc45eab06a)"><g clip-rule="nonzero" clip-path="url(#9050f47d65)"><path style=" stroke:none;fill-rule:nonzero;fill:#80b918;fill-opacity:1;" d="M 0.5625 0.726562 L 89.519531 0.726562 L 89.519531 19.59375 L 0.5625 19.59375 Z M 0.5625 0.726562 "/></g></g></g></g><g clip-rule="nonzero" clip-path="url(#2fbdb18c77)"><g transform="matrix(1,0,0,1,199,354)"><g clip-path="url(#f4c9459611)"><g clip-rule="nonzero" clip-path="url(#4eb34a7682)"><path style=" stroke:none;fill-rule:nonzero;fill:#ffe574;fill-opacity:1;" d="M 0.5625 0.859375 L 89.519531 0.859375 L 89.519531 19.726562 L 0.5625 19.726562 Z M 0.5625 0.859375 "/></g></g></g></g><g clip-rule="nonzero" clip-path="url(#33bcb69d1d)"><g transform="matrix(1,0,0,1,199,335)"><g clip-path="url(#68d4c506bf)"><g clip-rule="nonzero" clip-path="url(#e9eee19553)"><path style=" stroke:none;fill-rule:nonzero;fill:#ffad54;fill-opacity:1;" d="M 0.5625 0.992188 L 89.519531 0.992188 L 89.519531 19.859375 L 0.5625 19.859375 Z M 0.5625 0.992188 "/></g></g></g></g></g></svg>