<svg xmlns="http://www.w3.org/2000/svg" xmlns:xlink="http://www.w3.org/1999/xlink" width="600" zoomAndPan="magnify" viewBox="0 0 450 449.999984" height="600" preserveAspectRatio="xMidYMid meet" version="1.2"><defs><clipPath id="88f8525cab"><path d="M 207.734375 139.417969 L 248.878906 139.417969 L 248.878906 304.628906 L 207.734375 304.628906 Z M 207.734375 139.417969 "/></clipPath><clipPath id="189a52f271"><path d="M 248.878906 150.667969 L 248.878906 293.285156 C 248.878906 296.269531 247.691406 299.128906 245.582031 301.238281 C 243.472656 303.347656 240.609375 304.535156 237.628906 304.535156 L 218.984375 304.535156 C 216 304.535156 213.140625 303.347656 211.03125 301.238281 C 208.921875 299.128906 207.734375 296.269531 207.734375 293.285156 L 207.734375 150.667969 C 207.734375 147.683594 208.921875 144.820312 211.03125 142.710938 C 213.140625 140.601562 216 139.417969 218.984375 139.417969 L 237.628906 139.417969 C 240.609375 139.417969 243.472656 140.601562 245.582031 142.710938 C 247.691406 144.820312 248.878906 147.683594 248.878906 150.667969 Z M 248.878906 150.667969 "/></clipPath><clipPath id="74703f7b02"><path d="M 168.070312 304.535156 L 288.542969 304.535156 L 288.542969 433 L 168.070312 433 Z M 168.070312 304.535156 "/></clipPath><clipPath id="af945e917e"><path d="M 178.570312 304.535156 L 278.042969 304.535156 C 280.828125 304.535156 283.496094 305.644531 285.464844 307.613281 C 287.433594 309.582031 288.542969 312.25 288.542969 315.035156 L 288.542969 422.328125 C 288.542969 425.113281 287.433594 427.78125 285.464844 429.75 C 283.496094 431.71875 280.828125 432.828125 278.042969 432.828125 L 178.570312 432.828125 C 175.785156 432.828125 173.117188 431.71875 171.144531 429.75 C 169.175781 427.78125 168.070312 425.113281 168.070312 422.328125 L 168.070312 315.035156 C 168.070312 312.25 169.175781 309.582031 171.144531 307.613281 C 173.117188 305.644531 175.785156 304.535156 178.570312 304.535156 Z M 178.570312 304.535156 "/></clipPath><clipPath id="3cd4239ded"><path d="M 199.5625 304.535156 L 288.542969 304.535156 L 288.542969 433 L 199.5625 433 Z M 199.5625 304.535156 "/></clipPath><clipPath id="b29aa124aa"><path d="M 210.0625 304.535156 L 278.042969 304.535156 C 280.828125 304.535156 283.496094 305.644531 285.464844 307.613281 C 287.433594 309.582031 288.542969 312.25 288.542969 315.035156 L 288.542969 422.328125 C 288.542969 425.113281 287.433594 427.78125 285.464844 429.75 C 283.496094 431.71875 280.828125 432.828125 278.042969 432.828125 L 210.0625 432.828125 C 207.277344 432.828125 204.605469 431.71875 202.636719 429.75 C 200.667969 427.78125 199.5625 425.113281 199.5625 422.328125 L 199.5625 315.035156 C 199.5625 312.25 200.667969 309.582031 202.636719 307.613281 C 204.605469 305.644531 207.277344 304.535156 210.0625 304.535156 Z M 210.0625 304.535156 "/></clipPath><clipPath id="7cdb883343"><path d="M 158.449219 298.070312 L 298.1875 298.070312 L 298.1875 335.804688 L 158.449219 335.804688 Z M 158.449219 298.070312 "/></clipPath><clipPath id="71972863be"><path d="M 168.949219 298.070312 L 287.664062 298.070312 C 290.449219 298.070312 293.117188 299.175781 295.085938 301.144531 C 297.058594 303.113281 298.164062 305.785156 298.164062 308.570312 L 298.164062 325.304688 C 298.164062 328.089844 297.058594 330.761719 295.085938 332.730469 C 293.117188 334.699219 290.449219 335.804688 287.664062 335.804688 L 168.949219 335.804688 C 166.164062 335.804688 163.492188 334.699219 161.523438 332.730469 C 159.554688 330.761719 158.449219 328.089844 158.449219 325.304688 L 158.449219 308.570312 C 158.449219 305.785156 159.554688 303.113281 161.523438 301.144531 C 163.492188 299.175781 166.164062 298.070312 168.949219 298.070312 Z M 168.949219 298.070312 "/></clipPath><clipPath id="04cd26406c"><path d="M 158.449219 430.203125 L 298.175781 430.203125 L 298.175781 450 L 158.449219 450 Z M 158.449219 430.203125 "/></clipPath><clipPath id="8f5b5c9616"><path d="M 168.347656 430.203125 L 288.265625 430.203125 C 290.890625 430.203125 293.40625 431.246094 295.265625 433.105469 C 297.121094 434.960938 298.164062 437.476562 298.164062 440.101562 C 298.164062 442.726562 297.121094 445.246094 295.265625 447.101562 C 293.40625 448.957031 290.890625 450 288.265625 450 L 168.347656 450 C 165.722656 450 163.203125 448.957031 161.347656 447.101562 C 159.492188 445.246094 158.449219 442.726562 158.449219 440.101562 C 158.449219 437.476562 159.492188 434.960938 161.347656 433.105469 C 163.203125 431.246094 165.722656 430.203125 168.347656 430.203125 Z M 168.347656 430.203125 "/></clipPath><clipPath id="52abe31e53"><path d="M 229 240 L 286 240 L 286 284 L 229 284 Z M 229 240 "/></clipPath><clipPath id="763e92fbac"><path d="M 277.824219 236.636719 L 289.808594 257.550781 L 236.953125 287.847656 L 224.96875 266.933594 Z M 277.824219 236.636719 "/></clipPath><clipPath id="160e979b2b"><path d="M 280.046875 263.144531 L 246.71875 282.25 C 241.328125 285.339844 234.453125 283.472656 231.363281 278.082031 L 230.566406 276.691406 C 227.476562 271.300781 229.339844 264.425781 234.730469 261.335938 L 268.0625 242.230469 C 273.453125 239.140625 280.328125 241.007812 283.417969 246.398438 L 284.214844 247.789062 C 287.304688 253.179688 285.4375 260.054688 280.046875 263.144531 Z M 280.046875 263.144531 "/></clipPath><clipPath id="c9e9d8611e"><path d="M 175 185 L 224 185 L 224 240 L 175 240 Z M 175 185 "/></clipPath><clipPath id="e15781fb31"><path d="M 170.792969 196.84375 L 189.296875 181.398438 L 228.335938 228.171875 L 209.828125 243.617188 Z M 170.792969 196.84375 "/></clipPath><clipPath id="ef56e777e4"><path d="M 196.507812 190.035156 L 221.125 219.53125 C 225.105469 224.300781 224.464844 231.394531 219.695312 235.378906 L 218.464844 236.40625 C 213.691406 240.386719 206.597656 239.746094 202.617188 234.976562 L 178 205.484375 C 174.019531 200.710938 174.660156 193.617188 179.429688 189.636719 L 180.660156 188.609375 C 185.429688 184.628906 192.523438 185.265625 196.507812 190.035156 Z M 196.507812 190.035156 "/></clipPath><clipPath id="538bb3f75a"><path d="M 175.457031 144.628906 L 199.5625 144.628906 L 199.5625 205.171875 L 175.457031 205.171875 Z M 175.457031 144.628906 "/></clipPath><clipPath id="3a36ac17a3"><path d="M 199.5625 155.878906 L 199.5625 193.910156 C 199.5625 200.121094 194.523438 205.160156 188.3125 205.160156 L 186.707031 205.160156 C 180.492188 205.160156 175.457031 200.121094 175.457031 193.910156 L 175.457031 155.878906 C 175.457031 149.664062 180.492188 144.628906 186.707031 144.628906 L 188.3125 144.628906 C 194.523438 144.628906 199.5625 149.664062 199.5625 155.878906 Z M 199.5625 155.878906 "/></clipPath><clipPath id="7422ab6445"><path d="M 261.585938 225 L 285.691406 225 L 285.691406 262.289062 L 261.585938 262.289062 Z M 261.585938 225 "/></clipPath><clipPath id="dd9d6b1184"><path d="M 285.691406 236.25 L 285.691406 250.988281 C 285.691406 257.199219 280.65625 262.238281 274.441406 262.238281 L 272.835938 262.238281 C 266.625 262.238281 261.585938 257.199219 261.585938 250.988281 L 261.585938 236.25 C 261.585938 230.035156 266.625 225 272.835938 225 L 274.441406 225 C 280.65625 225 285.691406 230.035156 285.691406 236.25 Z M 285.691406 236.25 "/></clipPath><clipPath id="16f5d21c14"><path d="M 172 236 L 224 236 L 224 288 L 172 288 Z M 172 236 "/></clipPath><clipPath id="aad8f33430"><path d="M 168.1875 249.21875 L 185.230469 232.171875 L 228.308594 275.25 L 211.261719 292.296875 Z M 168.1875 249.21875 "/></clipPath><clipPath id="c497f81cc7"><path d="M 193.183594 240.128906 L 220.351562 267.292969 C 224.742188 271.6875 224.742188 278.808594 220.351562 283.203125 L 219.214844 284.335938 C 214.824219 288.730469 207.699219 288.730469 203.304688 284.335938 L 176.140625 257.171875 C 171.746094 252.777344 171.746094 245.65625 176.140625 241.261719 L 177.273438 240.128906 C 181.667969 235.734375 188.792969 235.734375 193.183594 240.128906 Z M 193.183594 240.128906 "/></clipPath></defs><g id="2d75beca56"><g clip-rule="nonzero" clip-path="url(#88f8525cab)"><g clip-rule="nonzero" clip-path="url(#189a52f271)"><path style=" stroke:none;fill-rule:nonzero;fill:#80b918;fill-opacity:1;" d="M 207.734375 139.417969 L 248.878906 139.417969 L 248.878906 304.46875 L 207.734375 304.46875 Z M 207.734375 139.417969 "/></g></g><g clip-rule="nonzero" clip-path="url(#74703f7b02)"><g clip-rule="nonzero" clip-path="url(#af945e917e)"><path style=" stroke:none;fill-rule:nonzero;fill:#92530a;fill-opacity:1;" d="M 168.070312 304.535156 L 288.542969 304.535156 L 288.542969 433.007812 L 168.070312 433.007812 Z M 168.070312 304.535156 "/></g></g><g clip-rule="nonzero" clip-path="url(#3cd4239ded)"><g clip-rule="nonzero" clip-path="url(#b29aa124aa)"><path style=" stroke:none;fill-rule:nonzero;fill:#a8610d;fill-opacity:1;" d="M 199.5625 304.535156 L 288.542969 304.535156 L 288.542969 432.792969 L 199.5625 432.792969 Z M 199.5625 304.535156 "/></g></g><g clip-rule="nonzero" clip-path="url(#7cdb883343)"><g clip-rule="nonzero" clip-path="url(#71972863be)"><path style=" stroke:none;fill-rule:nonzero;fill:#c87009;fill-opacity:1;" d="M 158.449219 298.070312 L 298.1875 298.070312 L 298.1875 335.804688 L 158.449219 335.804688 Z M 158.449219 298.070312 "/></g></g><g clip-rule="nonzero" clip-path="url(#04cd26406c)"><g clip-rule="nonzero" clip-path="url(#8f5b5c9616)"><path style=" stroke:none;fill-rule:nonzero;fill:#a6a6a6;fill-opacity:1;" d="M 158.449219 430.203125 L 298.175781 430.203125 L 298.175781 450 L 158.449219 450 Z M 158.449219 430.203125 "/></g></g><g clip-rule="nonzero" clip-path="url(#52abe31e53)"><g clip-rule="nonzero" clip-path="url(#763e92fbac)"><g clip-rule="nonzero" clip-path="url(#160e979b2b)"><path style=" stroke:none;fill-rule:nonzero;fill:#80b918;fill-opacity:1;" d="M 277.824219 236.636719 L 289.808594 257.550781 L 236.953125 287.847656 L 224.96875 266.933594 Z M 277.824219 236.636719 "/></g></g></g><g clip-rule="nonzero" clip-path="url(#c9e9d8611e)"><g clip-rule="nonzero" clip-path="url(#e15781fb31)"><g clip-rule="nonzero" clip-path="url(#ef56e777e4)"><path style=" stroke:none;fill-rule:nonzero;fill:#80b918;fill-opacity:1;" d="M 170.792969 196.84375 L 189.296875 181.398438 L 228.335938 228.171875 L 209.828125 243.617188 Z M 170.792969 196.84375 "/></g></g></g><g clip-rule="nonzero" clip-path="url(#538bb3f75a)"><g clip-rule="nonzero" clip-path="url(#3a36ac17a3)"><path style=" stroke:none;fill-rule:nonzero;fill:#80b918;fill-opacity:1;" d="M 175.457031 144.628906 L 199.5625 144.628906 L 199.5625 205.171875 L 175.457031 205.171875 Z M 175.457031 144.628906 "/></g></g><g clip-rule="nonzero" clip-path="url(#7422ab6445)"><g clip-rule="nonzero" clip-path="url(#dd9d6b1184)"><path style=" stroke:none;fill-rule:nonzero;fill:#80b918;fill-opacity:1;" d="M 261.585938 225 L 285.691406 225 L 285.691406 262.191406 L 261.585938 262.191406 Z M 261.585938 225 "/></g></g><g clip-rule="nonzero" clip-path="url(#16f5d21c14)"><g clip-rule="nonzero" clip-path="url(#aad8f33430)"><g clip-rule="nonzero" clip-path="url(#c497f81cc7)"><path style=" stroke:none;fill-rule:nonzero;fill:#80b918;fill-opacity:1;" d="M 168.1875 249.21875 L 185.230469 232.171875 L 228.308594 275.25 L 211.261719 292.296875 Z M 168.1875 249.21875 "/></g></g></g></g></svg>