<svg xmlns="http://www.w3.org/2000/svg" xmlns:xlink="http://www.w3.org/1999/xlink" width="600" zoomAndPan="magnify" viewBox="0 0 450 449.999984" height="600" preserveAspectRatio="xMidYMid meet" version="1.2"><defs><clipPath id="1f9e7b78fb"><path d="M 207.734375 139.417969 L 248.878906 139.417969 L 248.878906 304.628906 L 207.734375 304.628906 Z M 207.734375 139.417969 "/></clipPath><clipPath id="754447cba5"><path d="M 248.878906 150.667969 L 248.878906 293.285156 C 248.878906 296.269531 247.691406 299.128906 245.582031 301.238281 C 243.472656 303.347656 240.609375 304.535156 237.628906 304.535156 L 218.984375 304.535156 C 216 304.535156 213.140625 303.347656 211.03125 301.238281 C 208.921875 299.128906 207.734375 296.269531 207.734375 293.285156 L 207.734375 150.667969 C 207.734375 147.683594 208.921875 144.824219 211.03125 142.710938 C 213.140625 140.601562 216 139.417969 218.984375 139.417969 L 237.628906 139.417969 C 240.609375 139.417969 243.472656 140.601562 245.582031 142.710938 C 247.691406 144.824219 248.878906 147.683594 248.878906 150.667969 Z M 248.878906 150.667969 "/></clipPath><clipPath id="6f537f8eef"><path d="M 168.070312 304.535156 L 288.542969 304.535156 L 288.542969 433 L 168.070312 433 Z M 168.070312 304.535156 "/></clipPath><clipPath id="00e83f2cee"><path d="M 178.570312 304.535156 L 278.042969 304.535156 C 280.828125 304.535156 283.496094 305.644531 285.464844 307.613281 C 287.433594 309.582031 288.542969 312.25 288.542969 315.035156 L 288.542969 422.328125 C 288.542969 425.113281 287.433594 427.78125 285.464844 429.75 C 283.496094 431.71875 280.828125 432.828125 278.042969 432.828125 L 178.570312 432.828125 C 175.785156 432.828125 173.117188 431.71875 171.144531 429.75 C 169.175781 427.78125 168.070312 425.113281 168.070312 422.328125 L 168.070312 315.035156 C 168.070312 312.25 169.175781 309.582031 171.144531 307.613281 C 173.117188 305.644531 175.785156 304.535156 178.570312 304.535156 Z M 178.570312 304.535156 "/></clipPath><clipPath id="67e02894e2"><path d="M 199.5625 304.535156 L 288.542969 304.535156 L 288.542969 433 L 199.5625 433 Z M 199.5625 304.535156 "/></clipPath><clipPath id="75ae9cc595"><path d="M 210.0625 304.535156 L 278.042969 304.535156 C 280.828125 304.535156 283.496094 305.644531 285.464844 307.613281 C 287.433594 309.582031 288.542969 312.25 288.542969 315.035156 L 288.542969 422.328125 C 288.542969 425.113281 287.433594 427.78125 285.464844 429.75 C 283.496094 431.71875 280.828125 432.828125 278.042969 432.828125 L 210.0625 432.828125 C 207.277344 432.828125 204.605469 431.71875 202.636719 429.75 C 200.667969 427.78125 199.5625 425.113281 199.5625 422.328125 L 199.5625 315.035156 C 199.5625 312.25 200.667969 309.582031 202.636719 307.613281 C 204.605469 305.644531 207.277344 304.535156 210.0625 304.535156 Z M 210.0625 304.535156 "/></clipPath><clipPath id="8a0b3e6eba"><path d="M 158.449219 298.070312 L 298.1875 298.070312 L 298.1875 335.804688 L 158.449219 335.804688 Z M 158.449219 298.070312 "/></clipPath><clipPath id="a181884bdc"><path d="M 168.949219 298.070312 L 287.664062 298.070312 C 290.449219 298.070312 293.117188 299.175781 295.085938 301.144531 C 297.058594 303.113281 298.164062 305.785156 298.164062 308.570312 L 298.164062 325.304688 C 298.164062 328.089844 297.058594 330.757812 295.085938 332.730469 C 293.117188 334.699219 290.449219 335.804688 287.664062 335.804688 L 168.949219 335.804688 C 166.164062 335.804688 163.492188 334.699219 161.523438 332.730469 C 159.554688 330.757812 158.449219 328.089844 158.449219 325.304688 L 158.449219 308.570312 C 158.449219 305.785156 159.554688 303.113281 161.523438 301.144531 C 163.492188 299.175781 166.164062 298.070312 168.949219 298.070312 Z M 168.949219 298.070312 "/></clipPath><clipPath id="a256907e48"><path d="M 158.449219 430.203125 L 298.175781 430.203125 L 298.175781 450 L 158.449219 450 Z M 158.449219 430.203125 "/></clipPath><clipPath id="b5e483fdff"><path d="M 168.347656 430.203125 L 288.265625 430.203125 C 290.890625 430.203125 293.40625 431.246094 295.265625 433.105469 C 297.121094 434.960938 298.164062 437.476562 298.164062 440.101562 C 298.164062 442.726562 297.121094 445.246094 295.265625 447.101562 C 293.40625 448.957031 290.890625 450 288.265625 450 L 168.347656 450 C 165.722656 450 163.203125 448.957031 161.347656 447.101562 C 159.492188 445.246094 158.449219 442.726562 158.449219 440.101562 C 158.449219 437.476562 159.492188 434.960938 161.347656 433.105469 C 163.203125 431.246094 165.722656 430.203125 168.347656 430.203125 Z M 168.347656 430.203125 "/></clipPath><clipPath id="09315eb88e"><path d="M 229 240 L 286 240 L 286 284 L 229 284 Z M 229 240 "/></clipPath><clipPath id="5c45f3dd08"><path d="M 277.824219 236.636719 L 289.808594 257.550781 L 236.953125 287.847656 L 224.96875 266.933594 Z M 277.824219 236.636719 "/></clipPath><clipPath id="dd4deeef84"><path d="M 280.046875 263.144531 L 246.71875 282.25 C 241.328125 285.339844 234.453125 283.472656 231.363281 278.082031 L 230.566406 276.691406 C 227.476562 271.300781 229.339844 264.425781 234.730469 261.335938 L 268.0625 242.230469 C 273.453125 239.140625 280.328125 241.007812 283.417969 246.398438 L 284.214844 247.789062 C 287.304688 253.179688 285.4375 260.054688 280.046875 263.144531 Z M 280.046875 263.144531 "/></clipPath><clipPath id="2bc37628ab"><path d="M 175 210 L 224 210 L 224 264 L 175 264 Z M 175 210 "/></clipPath><clipPath id="a700514e7b"><path d="M 170.792969 220.96875 L 189.296875 205.523438 L 228.335938 252.292969 L 209.828125 267.738281 Z M 170.792969 220.96875 "/></clipPath><clipPath id="0775207e1a"><path d="M 196.507812 214.160156 L 221.125 243.652344 C 225.105469 248.425781 224.464844 255.519531 219.695312 259.5 L 218.464844 260.527344 C 213.691406 264.507812 206.597656 263.871094 202.617188 259.101562 L 178 229.605469 C 174.019531 224.835938 174.660156 217.742188 179.429688 213.757812 L 180.660156 212.730469 C 185.429688 208.75 192.523438 209.390625 196.507812 214.160156 Z M 196.507812 214.160156 "/></clipPath><clipPath id="627217ac5e"><path d="M 175.457031 168.75 L 199.5625 168.75 L 199.5625 229.292969 L 175.457031 229.292969 Z M 175.457031 168.75 "/></clipPath><clipPath id="4edab18cf0"><path d="M 199.5625 180 L 199.5625 218.03125 C 199.5625 224.246094 194.523438 229.28125 188.3125 229.28125 L 186.707031 229.28125 C 180.492188 229.28125 175.457031 224.246094 175.457031 218.03125 L 175.457031 180 C 175.457031 173.785156 180.492188 168.75 186.707031 168.75 L 188.3125 168.75 C 194.523438 168.75 199.5625 173.785156 199.5625 180 Z M 199.5625 180 "/></clipPath><clipPath id="28a0e739ef"><path d="M 261.585938 225 L 285.691406 225 L 285.691406 262.289062 L 261.585938 262.289062 Z M 261.585938 225 "/></clipPath><clipPath id="253307e636"><path d="M 285.691406 236.25 L 285.691406 250.988281 C 285.691406 257.199219 280.65625 262.238281 274.441406 262.238281 L 272.835938 262.238281 C 266.625 262.238281 261.585938 257.199219 261.585938 250.988281 L 261.585938 236.25 C 261.585938 230.035156 266.625 225 272.835938 225 L 274.441406 225 C 280.65625 225 285.691406 230.035156 285.691406 236.25 Z M 285.691406 236.25 "/></clipPath></defs><g id="61aa51bf85"><g clip-rule="nonzero" clip-path="url(#1f9e7b78fb)"><g clip-rule="nonzero" clip-path="url(#754447cba5)"><path style=" stroke:none;fill-rule:nonzero;fill:#80b918;fill-opacity:1;" d="M 207.734375 139.417969 L 248.878906 139.417969 L 248.878906 304.46875 L 207.734375 304.46875 Z M 207.734375 139.417969 "/></g></g><g clip-rule="nonzero" clip-path="url(#6f537f8eef)"><g clip-rule="nonzero" clip-path="url(#00e83f2cee)"><path style=" stroke:none;fill-rule:nonzero;fill:#92530a;fill-opacity:1;" d="M 168.070312 304.535156 L 288.542969 304.535156 L 288.542969 433.007812 L 168.070312 433.007812 Z M 168.070312 304.535156 "/></g></g><g clip-rule="nonzero" clip-path="url(#67e02894e2)"><g clip-rule="nonzero" clip-path="url(#75ae9cc595)"><path style=" stroke:none;fill-rule:nonzero;fill:#a8610d;fill-opacity:1;" d="M 199.5625 304.535156 L 288.542969 304.535156 L 288.542969 432.792969 L 199.5625 432.792969 Z M 199.5625 304.535156 "/></g></g><g clip-rule="nonzero" clip-path="url(#8a0b3e6eba)"><g clip-rule="nonzero" clip-path="url(#a181884bdc)"><path style=" stroke:none;fill-rule:nonzero;fill:#c87009;fill-opacity:1;" d="M 158.449219 298.070312 L 298.1875 298.070312 L 298.1875 335.804688 L 158.449219 335.804688 Z M 158.449219 298.070312 "/></g></g><g clip-rule="nonzero" clip-path="url(#a256907e48)"><g clip-rule="nonzero" clip-path="url(#b5e483fdff)"><path style=" stroke:none;fill-rule:nonzero;fill:#a6a6a6;fill-opacity:1;" d="M 158.449219 430.203125 L 298.175781 430.203125 L 298.175781 450 L 158.449219 450 Z M 158.449219 430.203125 "/></g></g><g clip-rule="nonzero" clip-path="url(#09315eb88e)"><g clip-rule="nonzero" clip-path="url(#5c45f3dd08)"><g clip-rule="nonzero" clip-path="url(#dd4deeef84)"><path style=" stroke:none;fill-rule:nonzero;fill:#80b918;fill-opacity:1;" d="M 277.824219 236.636719 L 289.808594 257.550781 L 236.953125 287.847656 L 224.96875 266.933594 Z M 277.824219 236.636719 "/></g></g></g><g clip-rule="nonzero" clip-path="url(#2bc37628ab)"><g clip-rule="nonzero" clip-path="url(#a700514e7b)"><g clip-rule="nonzero" clip-path="url(#0775207e1a)"><path style=" stroke:none;fill-rule:nonzero;fill:#80b918;fill-opacity:1;" d="M 170.792969 220.96875 L 189.296875 205.523438 L 228.335938 252.292969 L 209.828125 267.738281 Z M 170.792969 220.96875 "/></g></g></g><g clip-rule="nonzero" clip-path="url(#627217ac5e)"><g clip-rule="nonzero" clip-path="url(#4edab18cf0)"><path style=" stroke:none;fill-rule:nonzero;fill:#80b918;fill-opacity:1;" d="M 175.457031 168.75 L 199.5625 168.75 L 199.5625 229.292969 L 175.457031 229.292969 Z M 175.457031 168.75 "/></g></g><g clip-rule="nonzero" clip-path="url(#28a0e739ef)"><g clip-rule="nonzero" clip-path="url(#253307e636)"><path style=" stroke:none;fill-rule:nonzero;fill:#80b918;fill-opacity:1;" d="M 261.585938 225 L 285.691406 225 L 285.691406 262.191406 L 261.585938 262.191406 Z M 261.585938 225 "/></g></g></g></svg>