<svg xmlns="http://www.w3.org/2000/svg" xmlns:xlink="http://www.w3.org/1999/xlink" width="600" zoomAndPan="magnify" viewBox="0 0 450 449.999984" height="600" preserveAspectRatio="xMidYMid meet" version="1.2"><defs><clipPath id="2a9255d945"><path d="M 207.734375 196.207031 L 248.878906 196.207031 L 248.878906 304.6875 L 207.734375 304.6875 Z M 207.734375 196.207031 "/></clipPath><clipPath id="b9d041c5c2"><path d="M 248.878906 207.457031 L 248.878906 293.285156 C 248.878906 296.269531 247.691406 299.128906 245.582031 301.238281 C 243.472656 303.351562 240.609375 304.535156 237.628906 304.535156 L 218.984375 304.535156 C 216 304.535156 213.140625 303.351562 211.03125 301.238281 C 208.921875 299.128906 207.734375 296.269531 207.734375 293.285156 L 207.734375 207.457031 C 207.734375 204.472656 208.921875 201.609375 211.03125 199.5 C 213.140625 197.390625 216 196.207031 218.984375 196.207031 L 237.628906 196.207031 C 240.609375 196.207031 243.472656 197.390625 245.582031 199.5 C 247.691406 201.609375 248.878906 204.472656 248.878906 207.457031 Z M 248.878906 207.457031 "/></clipPath><clipPath id="91b67da25b"><path d="M 168.070312 304.535156 L 288.542969 304.535156 L 288.542969 433 L 168.070312 433 Z M 168.070312 304.535156 "/></clipPath><clipPath id="5801f7d5f2"><path d="M 178.570312 304.535156 L 278.042969 304.535156 C 280.828125 304.535156 283.496094 305.644531 285.464844 307.613281 C 287.433594 309.582031 288.542969 312.25 288.542969 315.035156 L 288.542969 422.328125 C 288.542969 425.113281 287.433594 427.78125 285.464844 429.75 C 283.496094 431.71875 280.828125 432.828125 278.042969 432.828125 L 178.570312 432.828125 C 175.785156 432.828125 173.117188 431.71875 171.144531 429.75 C 169.175781 427.78125 168.070312 425.113281 168.070312 422.328125 L 168.070312 315.035156 C 168.070312 312.25 169.175781 309.582031 171.144531 307.613281 C 173.117188 305.644531 175.785156 304.535156 178.570312 304.535156 Z M 178.570312 304.535156 "/></clipPath><clipPath id="6e9ab4624d"><path d="M 199.5625 304.535156 L 288.542969 304.535156 L 288.542969 433 L 199.5625 433 Z M 199.5625 304.535156 "/></clipPath><clipPath id="4e878e7004"><path d="M 210.0625 304.535156 L 278.042969 304.535156 C 280.828125 304.535156 283.496094 305.644531 285.464844 307.613281 C 287.433594 309.582031 288.542969 312.25 288.542969 315.035156 L 288.542969 422.328125 C 288.542969 425.113281 287.433594 427.78125 285.464844 429.75 C 283.496094 431.71875 280.828125 432.828125 278.042969 432.828125 L 210.0625 432.828125 C 207.277344 432.828125 204.605469 431.71875 202.636719 429.75 C 200.667969 427.78125 199.5625 425.113281 199.5625 422.328125 L 199.5625 315.035156 C 199.5625 312.25 200.667969 309.582031 202.636719 307.613281 C 204.605469 305.644531 207.277344 304.535156 210.0625 304.535156 Z M 210.0625 304.535156 "/></clipPath><clipPath id="fc130177f9"><path d="M 158.449219 298.070312 L 298.1875 298.070312 L 298.1875 335.804688 L 158.449219 335.804688 Z M 158.449219 298.070312 "/></clipPath><clipPath id="cc70665ea6"><path d="M 168.949219 298.070312 L 287.664062 298.070312 C 290.449219 298.070312 293.117188 299.175781 295.085938 301.144531 C 297.058594 303.113281 298.164062 305.785156 298.164062 308.570312 L 298.164062 325.304688 C 298.164062 328.089844 297.058594 330.761719 295.085938 332.730469 C 293.117188 334.699219 290.449219 335.804688 287.664062 335.804688 L 168.949219 335.804688 C 166.164062 335.804688 163.492188 334.699219 161.523438 332.730469 C 159.554688 330.761719 158.449219 328.089844 158.449219 325.304688 L 158.449219 308.570312 C 158.449219 305.785156 159.554688 303.113281 161.523438 301.144531 C 163.492188 299.175781 166.164062 298.070312 168.949219 298.070312 Z M 168.949219 298.070312 "/></clipPath><clipPath id="01c95df10d"><path d="M 158.449219 430.203125 L 298.175781 430.203125 L 298.175781 450 L 158.449219 450 Z M 158.449219 430.203125 "/></clipPath><clipPath id="4d92a63608"><path d="M 168.347656 430.203125 L 288.265625 430.203125 C 290.890625 430.203125 293.40625 431.246094 295.265625 433.105469 C 297.121094 434.960938 298.164062 437.476562 298.164062 440.101562 C 298.164062 442.726562 297.121094 445.246094 295.265625 447.101562 C 293.40625 448.957031 290.890625 450 288.265625 450 L 168.347656 450 C 165.722656 450 163.203125 448.957031 161.347656 447.101562 C 159.492188 445.246094 158.449219 442.726562 158.449219 440.101562 C 158.449219 437.476562 159.492188 434.960938 161.347656 433.105469 C 163.203125 431.246094 165.722656 430.203125 168.347656 430.203125 Z M 168.347656 430.203125 "/></clipPath><clipPath id="8fb0808f87"><path d="M 229 240 L 286 240 L 286 284 L 229 284 Z M 229 240 "/></clipPath><clipPath id="0e9320b72d"><path d="M 277.824219 236.636719 L 289.808594 257.550781 L 236.953125 287.84375 L 224.96875 266.933594 Z M 277.824219 236.636719 "/></clipPath><clipPath id="9619eb8401"><path d="M 280.046875 263.144531 L 246.71875 282.25 C 241.328125 285.339844 234.453125 283.472656 231.363281 278.082031 L 230.566406 276.691406 C 227.476562 271.300781 229.339844 264.425781 234.730469 261.335938 L 268.0625 242.230469 C 273.453125 239.140625 280.328125 241.007812 283.417969 246.398438 L 284.214844 247.789062 C 287.304688 253.179688 285.4375 260.054688 280.046875 263.144531 Z M 280.046875 263.144531 "/></clipPath><clipPath id="563b3f25fe"><path d="M 174 211 L 225 211 L 225 263 L 174 263 Z M 174 211 "/></clipPath><clipPath id="6032973941"><path d="M 169.5 223.613281 L 186.546875 206.570312 L 229.625 249.648438 L 212.578125 266.691406 Z M 169.5 223.613281 "/></clipPath><clipPath id="3c0b8b61b5"><path d="M 194.5 214.523438 L 221.667969 241.691406 C 226.058594 246.082031 226.058594 253.207031 221.667969 257.601562 L 220.53125 258.734375 C 216.140625 263.128906 209.015625 263.128906 204.621094 258.734375 L 177.457031 231.570312 C 173.0625 227.175781 173.0625 220.050781 177.457031 215.660156 L 178.589844 214.523438 C 182.984375 210.128906 190.109375 210.128906 194.5 214.523438 Z M 194.5 214.523438 "/></clipPath></defs><g id="9e01a3649b"><g clip-rule="nonzero" clip-path="url(#2a9255d945)"><g clip-rule="nonzero" clip-path="url(#b9d041c5c2)"><path style=" stroke:none;fill-rule:nonzero;fill:#80b918;fill-opacity:1;" d="M 207.734375 196.207031 L 248.878906 196.207031 L 248.878906 304.523438 L 207.734375 304.523438 Z M 207.734375 196.207031 "/></g></g><g clip-rule="nonzero" clip-path="url(#91b67da25b)"><g clip-rule="nonzero" clip-path="url(#5801f7d5f2)"><path style=" stroke:none;fill-rule:nonzero;fill:#92530a;fill-opacity:1;" d="M 168.070312 304.535156 L 288.542969 304.535156 L 288.542969 433.007812 L 168.070312 433.007812 Z M 168.070312 304.535156 "/></g></g><g clip-rule="nonzero" clip-path="url(#6e9ab4624d)"><g clip-rule="nonzero" clip-path="url(#4e878e7004)"><path style=" stroke:none;fill-rule:nonzero;fill:#a8610d;fill-opacity:1;" d="M 199.5625 304.535156 L 288.542969 304.535156 L 288.542969 432.792969 L 199.5625 432.792969 Z M 199.5625 304.535156 "/></g></g><g clip-rule="nonzero" clip-path="url(#fc130177f9)"><g clip-rule="nonzero" clip-path="url(#cc70665ea6)"><path style=" stroke:none;fill-rule:nonzero;fill:#c87009;fill-opacity:1;" d="M 158.449219 298.070312 L 298.1875 298.070312 L 298.1875 335.804688 L 158.449219 335.804688 Z M 158.449219 298.070312 "/></g></g><g clip-rule="nonzero" clip-path="url(#01c95df10d)"><g clip-rule="nonzero" clip-path="url(#4d92a63608)"><path style=" stroke:none;fill-rule:nonzero;fill:#a6a6a6;fill-opacity:1;" d="M 158.449219 430.203125 L 298.175781 430.203125 L 298.175781 450 L 158.449219 450 Z M 158.449219 430.203125 "/></g></g><g clip-rule="nonzero" clip-path="url(#8fb0808f87)"><g clip-rule="nonzero" clip-path="url(#0e9320b72d)"><g clip-rule="nonzero" clip-path="url(#9619eb8401)"><path style=" stroke:none;fill-rule:nonzero;fill:#80b918;fill-opacity:1;" d="M 277.824219 236.636719 L 289.808594 257.550781 L 236.953125 287.84375 L 224.96875 266.933594 Z M 277.824219 236.636719 "/></g></g></g><g clip-rule="nonzero" clip-path="url(#563b3f25fe)"><g clip-rule="nonzero" clip-path="url(#6032973941)"><g clip-rule="nonzero" clip-path="url(#3c0b8b61b5)"><path style=" stroke:none;fill-rule:nonzero;fill:#80b918;fill-opacity:1;" d="M 169.5 223.613281 L 186.546875 206.570312 L 229.625 249.648438 L 212.578125 266.691406 Z M 169.5 223.613281 "/></g></g></g></g></svg>