<svg xmlns="http://www.w3.org/2000/svg" xmlns:xlink="http://www.w3.org/1999/xlink" width="600" zoomAndPan="magnify" viewBox="0 0 450 449.999984" height="600" preserveAspectRatio="xMidYMid meet" version="1.2"><defs><clipPath id="6f068efab3"><path d="M 207.734375 225 L 248.878906 225 L 248.878906 304.550781 L 207.734375 304.550781 Z M 207.734375 225 "/></clipPath><clipPath id="49cb525ec9"><path d="M 248.878906 236.25 L 248.878906 293.285156 C 248.878906 296.269531 247.691406 299.128906 245.582031 301.242188 C 243.472656 303.351562 240.609375 304.535156 237.628906 304.535156 L 218.984375 304.535156 C 216 304.535156 213.140625 303.351562 211.03125 301.242188 C 208.921875 299.128906 207.734375 296.269531 207.734375 293.285156 L 207.734375 236.25 C 207.734375 233.265625 208.921875 230.40625 211.03125 228.296875 C 213.140625 226.183594 216 225 218.984375 225 L 237.628906 225 C 240.609375 225 243.472656 226.183594 245.582031 228.296875 C 247.691406 230.40625 248.878906 233.265625 248.878906 236.25 Z M 248.878906 236.25 "/></clipPath><clipPath id="a5dfd5cdb5"><path d="M 168.070312 304.535156 L 288.542969 304.535156 L 288.542969 433 L 168.070312 433 Z M 168.070312 304.535156 "/></clipPath><clipPath id="a71c849446"><path d="M 178.570312 304.535156 L 278.042969 304.535156 C 280.828125 304.535156 283.496094 305.644531 285.464844 307.613281 C 287.433594 309.582031 288.542969 312.25 288.542969 315.035156 L 288.542969 422.328125 C 288.542969 425.113281 287.433594 427.78125 285.464844 429.75 C 283.496094 431.71875 280.828125 432.828125 278.042969 432.828125 L 178.570312 432.828125 C 175.785156 432.828125 173.117188 431.71875 171.144531 429.75 C 169.175781 427.78125 168.070312 425.113281 168.070312 422.328125 L 168.070312 315.035156 C 168.070312 312.25 169.175781 309.582031 171.144531 307.613281 C 173.117188 305.644531 175.785156 304.535156 178.570312 304.535156 Z M 178.570312 304.535156 "/></clipPath><clipPath id="2dbcdd8cee"><path d="M 199.5625 304.535156 L 288.542969 304.535156 L 288.542969 433 L 199.5625 433 Z M 199.5625 304.535156 "/></clipPath><clipPath id="969ca21a8c"><path d="M 210.0625 304.535156 L 278.042969 304.535156 C 280.828125 304.535156 283.496094 305.644531 285.464844 307.613281 C 287.433594 309.582031 288.542969 312.25 288.542969 315.035156 L 288.542969 422.328125 C 288.542969 425.113281 287.433594 427.78125 285.464844 429.75 C 283.496094 431.71875 280.828125 432.828125 278.042969 432.828125 L 210.0625 432.828125 C 207.277344 432.828125 204.605469 431.71875 202.636719 429.75 C 200.667969 427.78125 199.5625 425.113281 199.5625 422.328125 L 199.5625 315.035156 C 199.5625 312.25 200.667969 309.582031 202.636719 307.613281 C 204.605469 305.644531 207.277344 304.535156 210.0625 304.535156 Z M 210.0625 304.535156 "/></clipPath><clipPath id="d66f2c7c66"><path d="M 158.449219 298.070312 L 298.1875 298.070312 L 298.1875 335.804688 L 158.449219 335.804688 Z M 158.449219 298.070312 "/></clipPath><clipPath id="9862fb94ec"><path d="M 168.949219 298.070312 L 287.664062 298.070312 C 290.449219 298.070312 293.117188 299.175781 295.085938 301.144531 C 297.058594 303.113281 298.164062 305.785156 298.164062 308.570312 L 298.164062 325.304688 C 298.164062 328.089844 297.058594 330.761719 295.085938 332.730469 C 293.117188 334.699219 290.449219 335.804688 287.664062 335.804688 L 168.949219 335.804688 C 166.164062 335.804688 163.492188 334.699219 161.523438 332.730469 C 159.554688 330.761719 158.449219 328.089844 158.449219 325.304688 L 158.449219 308.570312 C 158.449219 305.785156 159.554688 303.113281 161.523438 301.144531 C 163.492188 299.175781 166.164062 298.070312 168.949219 298.070312 Z M 168.949219 298.070312 "/></clipPath><clipPath id="4e275a35c9"><path d="M 158.449219 430.203125 L 298.175781 430.203125 L 298.175781 450 L 158.449219 450 Z M 158.449219 430.203125 "/></clipPath><clipPath id="2e2d438b26"><path d="M 168.347656 430.203125 L 288.265625 430.203125 C 290.890625 430.203125 293.40625 431.246094 295.265625 433.105469 C 297.121094 434.960938 298.164062 437.476562 298.164062 440.101562 C 298.164062 442.726562 297.121094 445.246094 295.265625 447.101562 C 293.40625 448.957031 290.890625 450 288.265625 450 L 168.347656 450 C 165.722656 450 163.203125 448.957031 161.347656 447.101562 C 159.492188 445.246094 158.449219 442.726562 158.449219 440.101562 C 158.449219 437.476562 159.492188 434.960938 161.347656 433.105469 C 163.203125 431.246094 165.722656 430.203125 168.347656 430.203125 Z M 168.347656 430.203125 "/></clipPath><clipPath id="da813939b4"><path d="M 231 254 L 272 254 L 272 285 L 231 285 Z M 231 254 "/></clipPath><clipPath id="e28bdafa2e"><path d="M 266.464844 250.867188 L 275.121094 265.964844 L 236.957031 287.839844 L 228.300781 272.742188 Z M 266.464844 250.867188 "/></clipPath><clipPath id="5afc4708c4"><path d="M 267.570312 270.292969 L 244.507812 283.511719 C 240.339844 285.902344 235.019531 284.460938 232.628906 280.289062 C 230.242188 276.121094 231.683594 270.800781 235.851562 268.410156 L 258.914062 255.191406 C 263.085938 252.804688 268.402344 254.246094 270.792969 258.414062 C 273.183594 262.585938 271.742188 267.902344 267.570312 270.292969 Z M 267.570312 270.292969 "/></clipPath><clipPath id="198d4c6c81"><path d="M 185 232 L 222 232 L 222 269 L 185 269 Z M 185 232 "/></clipPath><clipPath id="efc822754f"><path d="M 181.589844 241.464844 L 193.898438 229.160156 L 225.003906 260.261719 L 212.695312 272.570312 Z M 181.589844 241.464844 "/></clipPath><clipPath id="222a53fbc1"><path d="M 200.050781 235.3125 L 218.847656 254.109375 C 222.246094 257.507812 222.246094 263.015625 218.847656 266.414062 C 215.449219 269.8125 209.9375 269.8125 206.539062 266.414062 L 187.746094 247.621094 C 184.347656 244.222656 184.347656 238.710938 187.746094 235.3125 C 191.144531 231.914062 196.652344 231.914062 200.050781 235.3125 Z M 200.050781 235.3125 "/></clipPath></defs><g id="6283a8c3a7"><g clip-rule="nonzero" clip-path="url(#6f068efab3)"><g clip-rule="nonzero" clip-path="url(#49cb525ec9)"><path style=" stroke:none;fill-rule:nonzero;fill:#80b918;fill-opacity:1;" d="M 207.734375 225 L 248.878906 225 L 248.878906 304.550781 L 207.734375 304.550781 Z M 207.734375 225 "/></g></g><g clip-rule="nonzero" clip-path="url(#a5dfd5cdb5)"><g clip-rule="nonzero" clip-path="url(#a71c849446)"><path style=" stroke:none;fill-rule:nonzero;fill:#92530a;fill-opacity:1;" d="M 168.070312 304.535156 L 288.542969 304.535156 L 288.542969 433.007812 L 168.070312 433.007812 Z M 168.070312 304.535156 "/></g></g><g clip-rule="nonzero" clip-path="url(#2dbcdd8cee)"><g clip-rule="nonzero" clip-path="url(#969ca21a8c)"><path style=" stroke:none;fill-rule:nonzero;fill:#a8610d;fill-opacity:1;" d="M 199.5625 304.535156 L 288.542969 304.535156 L 288.542969 432.792969 L 199.5625 432.792969 Z M 199.5625 304.535156 "/></g></g><g clip-rule="nonzero" clip-path="url(#d66f2c7c66)"><g clip-rule="nonzero" clip-path="url(#9862fb94ec)"><path style=" stroke:none;fill-rule:nonzero;fill:#c87009;fill-opacity:1;" d="M 158.449219 298.070312 L 298.1875 298.070312 L 298.1875 335.804688 L 158.449219 335.804688 Z M 158.449219 298.070312 "/></g></g><g clip-rule="nonzero" clip-path="url(#4e275a35c9)"><g clip-rule="nonzero" clip-path="url(#2e2d438b26)"><path style=" stroke:none;fill-rule:nonzero;fill:#a6a6a6;fill-opacity:1;" d="M 158.449219 430.203125 L 298.175781 430.203125 L 298.175781 450 L 158.449219 450 Z M 158.449219 430.203125 "/></g></g><g clip-rule="nonzero" clip-path="url(#da813939b4)"><g clip-rule="nonzero" clip-path="url(#e28bdafa2e)"><g clip-rule="nonzero" clip-path="url(#5afc4708c4)"><path style=" stroke:none;fill-rule:nonzero;fill:#80b918;fill-opacity:1;" d="M 266.464844 250.867188 L 275.121094 265.964844 L 236.957031 287.839844 L 228.300781 272.742188 Z M 266.464844 250.867188 "/></g></g></g><g clip-rule="nonzero" clip-path="url(#198d4c6c81)"><g clip-rule="nonzero" clip-path="url(#efc822754f)"><g clip-rule="nonzero" clip-path="url(#222a53fbc1)"><path style=" stroke:none;fill-rule:nonzero;fill:#80b918;fill-opacity:1;" d="M 181.589844 241.464844 L 193.898438 229.160156 L 225.003906 260.261719 L 212.695312 272.570312 Z M 181.589844 241.464844 "/></g></g></g></g></svg>