<svg xmlns="http://www.w3.org/2000/svg" xmlns:xlink="http://www.w3.org/1999/xlink" width="600" zoomAndPan="magnify" viewBox="0 0 450 449.999984" height="600" preserveAspectRatio="xMidYMid meet" version="1.2"><defs><clipPath id="74327a4f9f"><path d="M 219.019531 220.757812 L 230.980469 220.757812 L 230.980469 322.976562 L 219.019531 322.976562 Z M 219.019531 220.757812 "/></clipPath><clipPath id="ae86b9b51b"><path d="M 167 168 L 226 168 L 226 232.253906 L 167 232.253906 Z M 167 168 "/></clipPath><clipPath id="f7a7b3484e"><path d="M 222 169 L 289 169 L 289 226 L 222 226 Z M 222 169 "/></clipPath><clipPath id="8255968fca"><path d="M 219.019531 229.941406 L 221.1875 162.472656 L 288.652344 164.644531 L 286.484375 232.109375 Z M 219.019531 229.941406 "/></clipPath><clipPath id="9826497900"><path d="M 219.019531 229.941406 L 221.1875 162.472656 L 288.652344 164.644531 L 286.484375 232.109375 Z M 219.019531 229.941406 "/></clipPath><clipPath id="7e544c751d"><path d="M 221 255 L 255 255 L 255 285 L 221 285 Z M 221 255 "/></clipPath><clipPath id="073747bdf4"><path d="M 220.199219 286.046875 L 221.285156 252.316406 L 255.015625 253.402344 L 253.933594 287.132812 Z M 220.199219 286.046875 "/></clipPath><clipPath id="b673518bfe"><path d="M 220.199219 286.046875 L 221.285156 252.316406 L 255.015625 253.402344 L 253.933594 287.132812 Z M 220.199219 286.046875 "/></clipPath><clipPath id="67e5b64ffe"><path d="M 168.070312 304.535156 L 288.542969 304.535156 L 288.542969 433 L 168.070312 433 Z M 168.070312 304.535156 "/></clipPath><clipPath id="9c89d33512"><path d="M 178.570312 304.535156 L 278.042969 304.535156 C 280.828125 304.535156 283.496094 305.644531 285.464844 307.613281 C 287.433594 309.582031 288.542969 312.25 288.542969 315.035156 L 288.542969 422.328125 C 288.542969 425.113281 287.433594 427.78125 285.464844 429.75 C 283.496094 431.71875 280.828125 432.828125 278.042969 432.828125 L 178.570312 432.828125 C 175.785156 432.828125 173.117188 431.71875 171.144531 429.75 C 169.175781 427.78125 168.070312 425.113281 168.070312 422.328125 L 168.070312 315.035156 C 168.070312 312.25 169.175781 309.582031 171.144531 307.613281 C 173.117188 305.644531 175.785156 304.535156 178.570312 304.535156 Z M 178.570312 304.535156 "/></clipPath><clipPath id="68d771cf05"><path d="M 199.5625 304.535156 L 288.542969 304.535156 L 288.542969 433 L 199.5625 433 Z M 199.5625 304.535156 "/></clipPath><clipPath id="a96891d98e"><path d="M 210.0625 304.535156 L 278.042969 304.535156 C 280.828125 304.535156 283.496094 305.644531 285.464844 307.613281 C 287.433594 309.582031 288.542969 312.25 288.542969 315.035156 L 288.542969 422.328125 C 288.542969 425.113281 287.433594 427.78125 285.464844 429.75 C 283.496094 431.71875 280.828125 432.828125 278.042969 432.828125 L 210.0625 432.828125 C 207.277344 432.828125 204.605469 431.71875 202.636719 429.75 C 200.667969 427.78125 199.5625 425.113281 199.5625 422.328125 L 199.5625 315.035156 C 199.5625 312.25 200.667969 309.582031 202.636719 307.613281 C 204.605469 305.644531 207.277344 304.535156 210.0625 304.535156 Z M 210.0625 304.535156 "/></clipPath><clipPath id="2ebdeedbc0"><path d="M 158.449219 298.070312 L 298.1875 298.070312 L 298.1875 335.804688 L 158.449219 335.804688 Z M 158.449219 298.070312 "/></clipPath><clipPath id="4722c7667a"><path d="M 168.949219 298.070312 L 287.664062 298.070312 C 290.449219 298.070312 293.117188 299.175781 295.085938 301.144531 C 297.058594 303.113281 298.164062 305.785156 298.164062 308.570312 L 298.164062 325.304688 C 298.164062 328.089844 297.058594 330.761719 295.085938 332.730469 C 293.117188 334.699219 290.449219 335.804688 287.664062 335.804688 L 168.949219 335.804688 C 166.164062 335.804688 163.492188 334.699219 161.523438 332.730469 C 159.554688 330.761719 158.449219 328.089844 158.449219 325.304688 L 158.449219 308.570312 C 158.449219 305.785156 159.554688 303.113281 161.523438 301.144531 C 163.492188 299.175781 166.164062 298.070312 168.949219 298.070312 Z M 168.949219 298.070312 "/></clipPath><clipPath id="442b3eeb59"><path d="M 158.449219 430.203125 L 298.175781 430.203125 L 298.175781 450 L 158.449219 450 Z M 158.449219 430.203125 "/></clipPath><clipPath id="a1f3fb7b3d"><path d="M 168.347656 430.203125 L 288.265625 430.203125 C 290.890625 430.203125 293.40625 431.246094 295.265625 433.105469 C 297.121094 434.960938 298.164062 437.476562 298.164062 440.101562 C 298.164062 442.726562 297.121094 445.246094 295.265625 447.101562 C 293.40625 448.957031 290.890625 450 288.265625 450 L 168.347656 450 C 165.722656 450 163.203125 448.957031 161.347656 447.101562 C 159.492188 445.246094 158.449219 442.726562 158.449219 440.101562 C 158.449219 437.476562 159.492188 434.960938 161.347656 433.105469 C 163.203125 431.246094 165.722656 430.203125 168.347656 430.203125 Z M 168.347656 430.203125 "/></clipPath></defs><g id="3a6a96f588"><g clip-rule="nonzero" clip-path="url(#74327a4f9f)"><path style=" stroke:none;fill-rule:nonzero;fill:#80b918;fill-opacity:1;" d="M 219.019531 220.757812 L 230.980469 220.757812 L 230.980469 322.960938 L 219.019531 322.960938 Z M 219.019531 220.757812 "/></g><g clip-rule="nonzero" clip-path="url(#ae86b9b51b)"><path style=" stroke:none;fill-rule:nonzero;fill:#80b918;fill-opacity:1;" d="M 168.730469 168.203125 C 168.730469 168.203125 162.765625 179.523438 174.242188 205.59375 C 185.71875 231.664062 224.238281 232.007812 224.238281 232.007812 C 224.238281 232.007812 230.207031 212.804688 215.523438 188.78125 C 200.84375 164.753906 168.730469 168.203125 168.730469 168.203125 Z M 168.730469 168.203125 "/></g><g clip-rule="nonzero" clip-path="url(#f7a7b3484e)"><g clip-rule="nonzero" clip-path="url(#8255968fca)"><g clip-rule="nonzero" clip-path="url(#9826497900)"><path style=" stroke:none;fill-rule:nonzero;fill:#80b918;fill-opacity:1;" d="M 222.65625 224.058594 C 222.65625 224.058594 233.777344 230.382812 260.207031 219.753906 C 286.632812 209.121094 288.214844 170.628906 288.214844 170.628906 C 288.214844 170.628906 269.214844 164.050781 244.730469 177.949219 C 220.242188 191.851562 222.65625 224.058594 222.65625 224.058594 Z M 222.65625 224.058594 "/></g></g></g><g clip-rule="nonzero" clip-path="url(#7e544c751d)"><g clip-rule="nonzero" clip-path="url(#073747bdf4)"><g clip-rule="nonzero" clip-path="url(#b673518bfe)"><path style=" stroke:none;fill-rule:nonzero;fill:#80b918;fill-opacity:1;" d="M 222.019531 283.109375 C 222.019531 283.109375 227.578125 286.273438 240.789062 280.957031 C 254 275.644531 254.792969 256.402344 254.792969 256.402344 C 254.792969 256.402344 245.292969 253.113281 233.050781 260.0625 C 220.8125 267.011719 222.019531 283.109375 222.019531 283.109375 Z M 222.019531 283.109375 "/></g></g></g><g clip-rule="nonzero" clip-path="url(#67e5b64ffe)"><g clip-rule="nonzero" clip-path="url(#9c89d33512)"><path style=" stroke:none;fill-rule:nonzero;fill:#92530a;fill-opacity:1;" d="M 168.070312 304.535156 L 288.542969 304.535156 L 288.542969 433.007812 L 168.070312 433.007812 Z M 168.070312 304.535156 "/></g></g><g clip-rule="nonzero" clip-path="url(#68d771cf05)"><g clip-rule="nonzero" clip-path="url(#a96891d98e)"><path style=" stroke:none;fill-rule:nonzero;fill:#a8610d;fill-opacity:1;" d="M 199.5625 304.535156 L 288.542969 304.535156 L 288.542969 432.792969 L 199.5625 432.792969 Z M 199.5625 304.535156 "/></g></g><g clip-rule="nonzero" clip-path="url(#2ebdeedbc0)"><g clip-rule="nonzero" clip-path="url(#4722c7667a)"><path style=" stroke:none;fill-rule:nonzero;fill:#c87009;fill-opacity:1;" d="M 158.449219 298.070312 L 298.1875 298.070312 L 298.1875 335.804688 L 158.449219 335.804688 Z M 158.449219 298.070312 "/></g></g><g clip-rule="nonzero" clip-path="url(#442b3eeb59)"><g clip-rule="nonzero" clip-path="url(#a1f3fb7b3d)"><path style=" stroke:none;fill-rule:nonzero;fill:#a6a6a6;fill-opacity:1;" d="M 158.449219 430.203125 L 298.175781 430.203125 L 298.175781 450 L 158.449219 450 Z M 158.449219 430.203125 "/></g></g></g></svg>