<svg xmlns="http://www.w3.org/2000/svg" xmlns:xlink="http://www.w3.org/1999/xlink" width="600" zoomAndPan="magnify" viewBox="0 0 450 449.999984" height="600" preserveAspectRatio="xMidYMid meet" version="1.2"><defs><clipPath id="75a7514013"><path d="M 219.019531 276.160156 L 230.980469 276.160156 L 230.980469 322.976562 L 219.019531 322.976562 Z M 219.019531 276.160156 "/></clipPath><clipPath id="b2f6e993e5"><path d="M 218 224 L 285 224 L 285 282 L 218 282 Z M 218 224 "/></clipPath><clipPath id="0898ffaa37"><path d="M 215.09375 285.828125 L 217.261719 218.363281 L 284.726562 220.535156 L 282.558594 288 Z M 215.09375 285.828125 "/></clipPath><clipPath id="d5ba2b73c8"><path d="M 215.09375 285.828125 L 217.261719 218.363281 L 284.726562 220.535156 L 282.558594 288 Z M 215.09375 285.828125 "/></clipPath><clipPath id="627711c862"><path d="M 168.070312 304.535156 L 288.542969 304.535156 L 288.542969 433 L 168.070312 433 Z M 168.070312 304.535156 "/></clipPath><clipPath id="473534d4e7"><path d="M 178.570312 304.535156 L 278.042969 304.535156 C 280.828125 304.535156 283.496094 305.644531 285.464844 307.613281 C 287.433594 309.582031 288.542969 312.25 288.542969 315.035156 L 288.542969 422.328125 C 288.542969 425.113281 287.433594 427.78125 285.464844 429.75 C 283.496094 431.71875 280.828125 432.828125 278.042969 432.828125 L 178.570312 432.828125 C 175.785156 432.828125 173.117188 431.71875 171.144531 429.75 C 169.175781 427.78125 168.070312 425.113281 168.070312 422.328125 L 168.070312 315.035156 C 168.070312 312.25 169.175781 309.582031 171.144531 307.613281 C 173.117188 305.644531 175.785156 304.535156 178.570312 304.535156 Z M 178.570312 304.535156 "/></clipPath><clipPath id="1df8079bde"><path d="M 199.5625 304.535156 L 288.542969 304.535156 L 288.542969 433 L 199.5625 433 Z M 199.5625 304.535156 "/></clipPath><clipPath id="010326260d"><path d="M 210.0625 304.535156 L 278.042969 304.535156 C 280.828125 304.535156 283.496094 305.644531 285.464844 307.613281 C 287.433594 309.582031 288.542969 312.25 288.542969 315.035156 L 288.542969 422.328125 C 288.542969 425.113281 287.433594 427.78125 285.464844 429.75 C 283.496094 431.71875 280.828125 432.828125 278.042969 432.828125 L 210.0625 432.828125 C 207.277344 432.828125 204.605469 431.71875 202.636719 429.75 C 200.667969 427.78125 199.5625 425.113281 199.5625 422.328125 L 199.5625 315.035156 C 199.5625 312.25 200.667969 309.582031 202.636719 307.613281 C 204.605469 305.644531 207.277344 304.535156 210.0625 304.535156 Z M 210.0625 304.535156 "/></clipPath><clipPath id="5345dea80b"><path d="M 158.449219 298.070312 L 298.1875 298.070312 L 298.1875 335.804688 L 158.449219 335.804688 Z M 158.449219 298.070312 "/></clipPath><clipPath id="0522a43715"><path d="M 168.949219 298.070312 L 287.664062 298.070312 C 290.449219 298.070312 293.117188 299.175781 295.085938 301.144531 C 297.058594 303.113281 298.164062 305.785156 298.164062 308.570312 L 298.164062 325.304688 C 298.164062 328.089844 297.058594 330.761719 295.085938 332.730469 C 293.117188 334.699219 290.449219 335.804688 287.664062 335.804688 L 168.949219 335.804688 C 166.164062 335.804688 163.492188 334.699219 161.523438 332.730469 C 159.554688 330.761719 158.449219 328.089844 158.449219 325.304688 L 158.449219 308.570312 C 158.449219 305.785156 159.554688 303.113281 161.523438 301.144531 C 163.492188 299.175781 166.164062 298.070312 168.949219 298.070312 Z M 168.949219 298.070312 "/></clipPath><clipPath id="4d6412e6f3"><path d="M 158.449219 430.203125 L 298.175781 430.203125 L 298.175781 450 L 158.449219 450 Z M 158.449219 430.203125 "/></clipPath><clipPath id="59deed5e48"><path d="M 168.347656 430.203125 L 288.265625 430.203125 C 290.890625 430.203125 293.40625 431.246094 295.265625 433.105469 C 297.121094 434.960938 298.164062 437.476562 298.164062 440.101562 C 298.164062 442.726562 297.121094 445.246094 295.265625 447.101562 C 293.40625 448.957031 290.890625 450 288.265625 450 L 168.347656 450 C 165.722656 450 163.203125 448.957031 161.347656 447.101562 C 159.492188 445.246094 158.449219 442.726562 158.449219 440.101562 C 158.449219 437.476562 159.492188 434.960938 161.347656 433.105469 C 163.203125 431.246094 165.722656 430.203125 168.347656 430.203125 Z M 168.347656 430.203125 "/></clipPath></defs><g id="82527192d7"><g clip-rule="nonzero" clip-path="url(#75a7514013)"><path style=" stroke:none;fill-rule:nonzero;fill:#80b918;fill-opacity:1;" d="M 219.019531 276.160156 L 230.980469 276.160156 L 230.980469 322.984375 L 219.019531 322.984375 Z M 219.019531 276.160156 "/></g><path style=" stroke:none;fill-rule:nonzero;fill:#80b918;fill-opacity:1;" d="M 169.273438 223.992188 C 169.273438 223.992188 163.304688 235.308594 174.78125 261.382812 C 186.257812 287.453125 224.777344 287.796875 224.777344 287.796875 C 224.777344 287.796875 230.746094 268.59375 216.0625 244.570312 C 201.382812 220.542969 169.273438 223.992188 169.273438 223.992188 Z M 169.273438 223.992188 "/><g clip-rule="nonzero" clip-path="url(#b2f6e993e5)"><g clip-rule="nonzero" clip-path="url(#0898ffaa37)"><g clip-rule="nonzero" clip-path="url(#d5ba2b73c8)"><path style=" stroke:none;fill-rule:nonzero;fill:#80b918;fill-opacity:1;" d="M 218.730469 279.945312 C 218.730469 279.945312 229.851562 286.273438 256.28125 275.644531 C 282.707031 265.011719 284.289062 226.519531 284.289062 226.519531 C 284.289062 226.519531 265.289062 219.9375 240.800781 233.839844 C 216.316406 247.742188 218.730469 279.945312 218.730469 279.945312 Z M 218.730469 279.945312 "/></g></g></g><g clip-rule="nonzero" clip-path="url(#627711c862)"><g clip-rule="nonzero" clip-path="url(#473534d4e7)"><path style=" stroke:none;fill-rule:nonzero;fill:#92530a;fill-opacity:1;" d="M 168.070312 304.535156 L 288.542969 304.535156 L 288.542969 433.007812 L 168.070312 433.007812 Z M 168.070312 304.535156 "/></g></g><g clip-rule="nonzero" clip-path="url(#1df8079bde)"><g clip-rule="nonzero" clip-path="url(#010326260d)"><path style=" stroke:none;fill-rule:nonzero;fill:#a8610d;fill-opacity:1;" d="M 199.5625 304.535156 L 288.542969 304.535156 L 288.542969 432.792969 L 199.5625 432.792969 Z M 199.5625 304.535156 "/></g></g><g clip-rule="nonzero" clip-path="url(#5345dea80b)"><g clip-rule="nonzero" clip-path="url(#0522a43715)"><path style=" stroke:none;fill-rule:nonzero;fill:#c87009;fill-opacity:1;" d="M 158.449219 298.070312 L 298.1875 298.070312 L 298.1875 335.804688 L 158.449219 335.804688 Z M 158.449219 298.070312 "/></g></g><g clip-rule="nonzero" clip-path="url(#4d6412e6f3)"><g clip-rule="nonzero" clip-path="url(#59deed5e48)"><path style=" stroke:none;fill-rule:nonzero;fill:#a6a6a6;fill-opacity:1;" d="M 158.449219 430.203125 L 298.175781 430.203125 L 298.175781 450 L 158.449219 450 Z M 158.449219 430.203125 "/></g></g></g></svg>