<svg xmlns="http://www.w3.org/2000/svg" xmlns:xlink="http://www.w3.org/1999/xlink" width="500" zoomAndPan="magnify" viewBox="0 0 375 374.999991" height="500" preserveAspectRatio="xMidYMid meet" version="1.2"><g id="ed3454c5e8"><path style=" stroke:none;fill-rule:nonzero;fill:#4b4b4b;fill-opacity:1;" d="M 100.847656 342.816406 C 105.070312 343.3125 109.375 343.726562 113.101562 343.976562 C 177.527344 348.035156 271.347656 361.449219 318.300781 326.089844 C 347.28125 304.144531 340.492188 217.363281 341.898438 182.253906 C 343.554688 141.679688 352.5 64.585938 330.140625 44.546875 C 295.445312 13.90625 260.832031 62.929688 234.664062 89.59375 C 205.929688 118.824219 179.265625 149.046875 148.542969 176.375 C 122.875 199.230469 94.800781 221.421875 70.953125 246.679688 C 54.226562 264.398438 22.84375 299.507812 37.664062 326.171875 C 47.105469 342.070312 81.96875 340.25 100.847656 342.816406 Z M 100.847656 342.816406 "/></g></svg>