<svg xmlns="http://www.w3.org/2000/svg" xmlns:xlink="http://www.w3.org/1999/xlink" width="600" zoomAndPan="magnify" viewBox="0 0 450 449.999984" height="600" preserveAspectRatio="xMidYMid meet" version="1.2"><defs><clipPath id="cb9f9773c4"><path d="M 168.070312 304.40625 L 288.542969 304.40625 L 288.542969 432.878906 L 168.070312 432.878906 Z M 168.070312 304.40625 "/></clipPath><clipPath id="7b60037a01"><path d="M 178.570312 304.40625 L 278.042969 304.40625 C 280.828125 304.40625 283.496094 305.511719 285.464844 307.480469 C 287.433594 309.453125 288.542969 312.121094 288.542969 314.90625 L 288.542969 422.195312 C 288.542969 424.980469 287.433594 427.652344 285.464844 429.621094 C 283.496094 431.589844 280.828125 432.695312 278.042969 432.695312 L 178.570312 432.695312 C 175.785156 432.695312 173.117188 431.589844 171.144531 429.621094 C 169.175781 427.652344 168.070312 424.980469 168.070312 422.195312 L 168.070312 314.90625 C 168.070312 312.121094 169.175781 309.453125 171.144531 307.480469 C 173.117188 305.511719 175.785156 304.40625 178.570312 304.40625 Z M 178.570312 304.40625 "/></clipPath><clipPath id="741ec995cd"><path d="M 199.5625 304.40625 L 288.542969 304.40625 L 288.542969 433 L 199.5625 433 Z M 199.5625 304.40625 "/></clipPath><clipPath id="8d5939b04f"><path d="M 210.0625 304.40625 L 278.042969 304.40625 C 280.828125 304.40625 283.496094 305.511719 285.464844 307.480469 C 287.433594 309.453125 288.542969 312.121094 288.542969 314.90625 L 288.542969 422.195312 C 288.542969 424.980469 287.433594 427.652344 285.464844 429.621094 C 283.496094 431.589844 280.828125 432.695312 278.042969 432.695312 L 210.0625 432.695312 C 207.277344 432.695312 204.605469 431.589844 202.636719 429.621094 C 200.667969 427.652344 199.5625 424.980469 199.5625 422.195312 L 199.5625 314.90625 C 199.5625 312.121094 200.667969 309.453125 202.636719 307.480469 C 204.605469 305.511719 207.277344 304.40625 210.0625 304.40625 Z M 210.0625 304.40625 "/></clipPath><clipPath id="b18d050e15"><path d="M 158.449219 297.9375 L 298.1875 297.9375 L 298.1875 335.675781 L 158.449219 335.675781 Z M 158.449219 297.9375 "/></clipPath><clipPath id="7144f1ccef"><path d="M 168.949219 297.9375 L 287.664062 297.9375 C 290.449219 297.9375 293.117188 299.046875 295.085938 301.015625 C 297.058594 302.984375 298.164062 305.652344 298.164062 308.4375 L 298.164062 325.175781 C 298.164062 327.960938 297.058594 330.628906 295.085938 332.597656 C 293.117188 334.566406 290.449219 335.675781 287.664062 335.675781 L 168.949219 335.675781 C 166.164062 335.675781 163.492188 334.566406 161.523438 332.597656 C 159.554688 330.628906 158.449219 327.960938 158.449219 325.175781 L 158.449219 308.4375 C 158.449219 305.652344 159.554688 302.984375 161.523438 301.015625 C 163.492188 299.046875 166.164062 297.9375 168.949219 297.9375 Z M 168.949219 297.9375 "/></clipPath></defs><g id="52339e2b76"><g clip-rule="nonzero" clip-path="url(#cb9f9773c4)"><g clip-rule="nonzero" clip-path="url(#7b60037a01)"><path style=" stroke:none;fill-rule:nonzero;fill:#5e17eb;fill-opacity:1;" d="M 168.070312 304.40625 L 288.542969 304.40625 L 288.542969 432.878906 L 168.070312 432.878906 Z M 168.070312 304.40625 "/></g></g><g clip-rule="nonzero" clip-path="url(#741ec995cd)"><g clip-rule="nonzero" clip-path="url(#8d5939b04f)"><path style=" stroke:none;fill-rule:nonzero;fill:#7536f1;fill-opacity:1;" d="M 199.5625 304.40625 L 288.542969 304.40625 L 288.542969 432.664062 L 199.5625 432.664062 Z M 199.5625 304.40625 "/></g></g><g clip-rule="nonzero" clip-path="url(#b18d050e15)"><g clip-rule="nonzero" clip-path="url(#7144f1ccef)"><path style=" stroke:none;fill-rule:nonzero;fill:#8c52ff;fill-opacity:1;" d="M 158.449219 297.9375 L 298.1875 297.9375 L 298.1875 335.675781 L 158.449219 335.675781 Z M 158.449219 297.9375 "/></g></g></g></svg>