<svg xmlns="http://www.w3.org/2000/svg" xmlns:xlink="http://www.w3.org/1999/xlink" width="600" zoomAndPan="magnify" viewBox="0 0 450 449.999984" height="600" preserveAspectRatio="xMidYMid meet" version="1.2"><defs><clipPath id="3ede30c3b2"><path d="M 168.070312 304.722656 L 288.542969 304.722656 L 288.542969 433.195312 L 168.070312 433.195312 Z M 168.070312 304.722656 "/></clipPath><clipPath id="da53ddd575"><path d="M 178.570312 304.722656 L 278.042969 304.722656 C 280.828125 304.722656 283.496094 305.828125 285.464844 307.800781 C 287.433594 309.769531 288.542969 312.4375 288.542969 315.222656 L 288.542969 422.515625 C 288.542969 425.296875 287.433594 427.96875 285.464844 429.9375 C 283.496094 431.90625 280.828125 433.015625 278.042969 433.015625 L 178.570312 433.015625 C 175.785156 433.015625 173.117188 431.90625 171.144531 429.9375 C 169.175781 427.96875 168.070312 425.296875 168.070312 422.515625 L 168.070312 315.222656 C 168.070312 312.4375 169.175781 309.769531 171.144531 307.800781 C 173.117188 305.828125 175.785156 304.722656 178.570312 304.722656 Z M 178.570312 304.722656 "/></clipPath><clipPath id="cb6e6f165c"><path d="M 199.5625 304.722656 L 288.542969 304.722656 L 288.542969 433 L 199.5625 433 Z M 199.5625 304.722656 "/></clipPath><clipPath id="323855a9bb"><path d="M 210.0625 304.722656 L 278.042969 304.722656 C 280.828125 304.722656 283.496094 305.828125 285.464844 307.800781 C 287.433594 309.769531 288.542969 312.4375 288.542969 315.222656 L 288.542969 422.515625 C 288.542969 425.296875 287.433594 427.96875 285.464844 429.9375 C 283.496094 431.90625 280.828125 433.015625 278.042969 433.015625 L 210.0625 433.015625 C 207.277344 433.015625 204.605469 431.90625 202.636719 429.9375 C 200.667969 427.96875 199.5625 425.296875 199.5625 422.515625 L 199.5625 315.222656 C 199.5625 312.4375 200.667969 309.769531 202.636719 307.800781 C 204.605469 305.828125 207.277344 304.722656 210.0625 304.722656 Z M 210.0625 304.722656 "/></clipPath><clipPath id="70a1156b9a"><path d="M 158.449219 298.253906 L 298.1875 298.253906 L 298.1875 335.992188 L 158.449219 335.992188 Z M 158.449219 298.253906 "/></clipPath><clipPath id="d10a9c8bfd"><path d="M 168.949219 298.253906 L 287.664062 298.253906 C 290.449219 298.253906 293.117188 299.363281 295.085938 301.332031 C 297.058594 303.300781 298.164062 305.972656 298.164062 308.753906 L 298.164062 325.492188 C 298.164062 328.277344 297.058594 330.945312 295.085938 332.914062 C 293.117188 334.886719 290.449219 335.992188 287.664062 335.992188 L 168.949219 335.992188 C 166.164062 335.992188 163.492188 334.886719 161.523438 332.914062 C 159.554688 330.945312 158.449219 328.277344 158.449219 325.492188 L 158.449219 308.753906 C 158.449219 305.972656 159.554688 303.300781 161.523438 301.332031 C 163.492188 299.363281 166.164062 298.253906 168.949219 298.253906 Z M 168.949219 298.253906 "/></clipPath></defs><g id="0896b653c3"><g clip-rule="nonzero" clip-path="url(#3ede30c3b2)"><g clip-rule="nonzero" clip-path="url(#da53ddd575)"><path style=" stroke:none;fill-rule:nonzero;fill:#ff914d;fill-opacity:1;" d="M 168.070312 304.722656 L 288.542969 304.722656 L 288.542969 433.195312 L 168.070312 433.195312 Z M 168.070312 304.722656 "/></g></g><g clip-rule="nonzero" clip-path="url(#cb6e6f165c)"><g clip-rule="nonzero" clip-path="url(#323855a9bb)"><path style=" stroke:none;fill-rule:nonzero;fill:#ffbd59;fill-opacity:1;" d="M 199.5625 304.722656 L 288.542969 304.722656 L 288.542969 432.980469 L 199.5625 432.980469 Z M 199.5625 304.722656 "/></g></g><g clip-rule="nonzero" clip-path="url(#70a1156b9a)"><g clip-rule="nonzero" clip-path="url(#d10a9c8bfd)"><path style=" stroke:none;fill-rule:nonzero;fill:#ffde59;fill-opacity:1;" d="M 158.449219 298.253906 L 298.1875 298.253906 L 298.1875 335.992188 L 158.449219 335.992188 Z M 158.449219 298.253906 "/></g></g></g></svg>